G04 EAGLE Gerber RS-274X export*
G75*
%MOMM*%
%FSLAX34Y34*%
%LPD*%
%INTop Copper*%
%IPPOS*%
%AMOC8*
5,1,8,0,0,1.08239X$1,22.5*%
G01*
G04 Define Apertures*
%ADD10C,1.348000*%
%ADD11C,1.800000*%
%ADD12P,1.64956X8X292.5*%
%ADD13C,1.524000*%
%ADD14C,1.308000*%
%ADD15C,0.508000*%
%ADD16C,0.812800*%
G36*
X254791Y-434139D02*
X253800Y-434340D01*
X-254000Y-434340D01*
X-254916Y-434169D01*
X-255767Y-433624D01*
X-256339Y-432791D01*
X-256540Y-431800D01*
X-256540Y276100D01*
X-256369Y277016D01*
X-255824Y277867D01*
X-254991Y278439D01*
X-254000Y278640D01*
X253800Y278640D01*
X254716Y278469D01*
X255567Y277924D01*
X256139Y277091D01*
X256340Y276100D01*
X256340Y-431800D01*
X256169Y-432716D01*
X255624Y-433567D01*
X254791Y-434139D01*
G37*
%LPC*%
G36*
X-207054Y-299212D02*
X121710Y-299212D01*
X124137Y-298207D01*
X132599Y-289745D01*
X133604Y-287318D01*
X133604Y-272334D01*
X133797Y-271362D01*
X135064Y-268304D01*
X135064Y-265096D01*
X134658Y-264116D01*
X134466Y-263225D01*
X134636Y-262228D01*
X135180Y-261377D01*
X136014Y-260805D01*
X137005Y-260604D01*
X161312Y-260604D01*
X162266Y-260790D01*
X163109Y-261348D01*
X186759Y-284999D01*
X189186Y-286004D01*
X217214Y-286004D01*
X219641Y-284999D01*
X234199Y-270441D01*
X235204Y-268014D01*
X235204Y-261380D01*
X235390Y-260426D01*
X235948Y-259584D01*
X237744Y-257788D01*
X237744Y-250212D01*
X235948Y-248416D01*
X235405Y-247611D01*
X235204Y-246620D01*
X235204Y-235980D01*
X235390Y-235026D01*
X235948Y-234184D01*
X237744Y-232388D01*
X237744Y-224812D01*
X235948Y-223016D01*
X235405Y-222211D01*
X235204Y-221220D01*
X235204Y-210580D01*
X235390Y-209626D01*
X235948Y-208784D01*
X237744Y-206988D01*
X237744Y-199412D01*
X235948Y-197616D01*
X235405Y-196811D01*
X235204Y-195820D01*
X235204Y-185180D01*
X235390Y-184226D01*
X235948Y-183384D01*
X237744Y-181588D01*
X237744Y-174012D01*
X235948Y-172216D01*
X235405Y-171411D01*
X235204Y-170420D01*
X235204Y-159780D01*
X235390Y-158826D01*
X235948Y-157984D01*
X237744Y-156188D01*
X237744Y-148612D01*
X235948Y-146816D01*
X235405Y-146011D01*
X235204Y-145020D01*
X235204Y-143488D01*
X235390Y-142534D01*
X235948Y-141692D01*
X249439Y-128201D01*
X250444Y-125774D01*
X250444Y36874D01*
X249439Y39301D01*
X232341Y56399D01*
X229914Y57404D01*
X206988Y57404D01*
X206034Y57590D01*
X205192Y58148D01*
X192730Y70610D01*
X192211Y71360D01*
X191987Y72345D01*
X192164Y73340D01*
X192716Y74188D01*
X192948Y74344D01*
X195827Y77223D01*
X196742Y79432D01*
X184912Y79432D01*
X184912Y91262D01*
X182328Y90192D01*
X181437Y90000D01*
X180440Y90169D01*
X179589Y90714D01*
X179017Y91548D01*
X178816Y92538D01*
X178816Y98805D01*
X178972Y99683D01*
X179504Y100543D01*
X180328Y101128D01*
X181316Y101345D01*
X182309Y101159D01*
X183152Y100601D01*
X183279Y100474D01*
X186316Y99216D01*
X189604Y99216D01*
X193071Y100652D01*
X193104Y100675D01*
X194095Y100876D01*
X194793Y100876D01*
X197220Y101881D01*
X216047Y120708D01*
X217052Y123135D01*
X217052Y188091D01*
X216047Y190518D01*
X139210Y267355D01*
X136783Y268360D01*
X-151392Y268360D01*
X-153819Y267355D01*
X-186822Y234352D01*
X-187244Y234012D01*
X-188186Y233645D01*
X-189197Y233675D01*
X-190115Y234097D01*
X-190797Y234844D01*
X-191133Y235797D01*
X-191071Y236806D01*
X-190754Y237990D01*
X-190754Y244611D01*
X-192468Y251006D01*
X-195778Y256740D01*
X-200460Y261422D01*
X-206194Y264732D01*
X-212589Y266446D01*
X-219211Y266446D01*
X-225606Y264732D01*
X-231340Y261422D01*
X-236022Y256740D01*
X-239332Y251006D01*
X-241046Y244611D01*
X-241046Y237989D01*
X-239332Y231594D01*
X-236022Y225860D01*
X-231340Y221178D01*
X-225606Y217868D01*
X-219211Y216154D01*
X-212590Y216154D01*
X-211406Y216471D01*
X-210870Y216555D01*
X-209871Y216401D01*
X-209011Y215870D01*
X-208426Y215046D01*
X-208209Y214058D01*
X-208394Y213064D01*
X-208952Y212222D01*
X-232811Y188363D01*
X-233816Y185936D01*
X-233816Y86198D01*
X-232811Y83771D01*
X-201636Y52596D01*
X-201126Y51865D01*
X-200893Y50881D01*
X-201062Y49884D01*
X-201127Y49784D01*
X-200152Y49784D01*
X-200152Y27940D01*
X-193559Y27940D01*
X-189825Y29487D01*
X-186967Y32345D01*
X-186786Y32780D01*
X-186292Y33546D01*
X-185468Y34131D01*
X-184480Y34348D01*
X-183487Y34163D01*
X-182644Y33604D01*
X-135654Y-13386D01*
X-135103Y-14210D01*
X-133836Y-17268D01*
X-131568Y-19536D01*
X-128604Y-20764D01*
X-125396Y-20764D01*
X-122432Y-19536D01*
X-120164Y-17268D01*
X-118936Y-14304D01*
X-118936Y-11096D01*
X-120164Y-8132D01*
X-122432Y-5864D01*
X-125490Y-4597D01*
X-126314Y-4046D01*
X-130661Y300D01*
X-131171Y1031D01*
X-131403Y2015D01*
X-131234Y3012D01*
X-130689Y3863D01*
X-129855Y4435D01*
X-128864Y4636D01*
X-125396Y4636D01*
X-122432Y5864D01*
X-120164Y8132D01*
X-118936Y11096D01*
X-118936Y14304D01*
X-120164Y17268D01*
X-122432Y19536D01*
X-125396Y20764D01*
X-128604Y20764D01*
X-128620Y20757D01*
X-129551Y20564D01*
X-130545Y20750D01*
X-131388Y21308D01*
X-183290Y73211D01*
X-183817Y73979D01*
X-184034Y74966D01*
X-183849Y75960D01*
X-183290Y76803D01*
X-180954Y79139D01*
X-179696Y82176D01*
X-179696Y85084D01*
X-179540Y85962D01*
X-179008Y86822D01*
X-178184Y87407D01*
X-177197Y87624D01*
X-176203Y87439D01*
X-175360Y86881D01*
X-146889Y58409D01*
X-144462Y57404D01*
X-133360Y57404D01*
X-132407Y57218D01*
X-131573Y56666D01*
X-128604Y55436D01*
X-125381Y55436D01*
X-124563Y55619D01*
X-123564Y55466D01*
X-122704Y54935D01*
X-122119Y54110D01*
X-121902Y53123D01*
X-122087Y52129D01*
X-122645Y51286D01*
X-127024Y46908D01*
X-127829Y46365D01*
X-128397Y46250D01*
X-131568Y44936D01*
X-133836Y42668D01*
X-135064Y39704D01*
X-135064Y36496D01*
X-133836Y33532D01*
X-131568Y31264D01*
X-128604Y30036D01*
X-125396Y30036D01*
X-122432Y31264D01*
X-120164Y33532D01*
X-119285Y35653D01*
X-118592Y36609D01*
X-118075Y37052D01*
X-117744Y37508D01*
X-104129Y51123D01*
X-103124Y53550D01*
X-103124Y92754D01*
X-104129Y95181D01*
X-151707Y142759D01*
X-154134Y143764D01*
X-183706Y143764D01*
X-183902Y143772D01*
X-184954Y143853D01*
X-185285Y143800D01*
X-186260Y143397D01*
X-186444Y143329D01*
X-187447Y143001D01*
X-187745Y142819D01*
X-188536Y142285D01*
X-189527Y142084D01*
X-189604Y142084D01*
X-192641Y140826D01*
X-192904Y140563D01*
X-193635Y140053D01*
X-194619Y139820D01*
X-195616Y139990D01*
X-196467Y140535D01*
X-197039Y141368D01*
X-197240Y142359D01*
X-197240Y148844D01*
X-197084Y149722D01*
X-196552Y150582D01*
X-195728Y151167D01*
X-194741Y151384D01*
X-193747Y151198D01*
X-193642Y151129D01*
X-191008Y150038D01*
X-191008Y168522D01*
X-191438Y168788D01*
X-192023Y169612D01*
X-192239Y170600D01*
X-192054Y171593D01*
X-191496Y172436D01*
X-170112Y193820D01*
X-169306Y194363D01*
X-168316Y194564D01*
X-122638Y194564D01*
X-120211Y195569D01*
X-113969Y201812D01*
X-113163Y202355D01*
X-113121Y202363D01*
X-109619Y203814D01*
X-107294Y206139D01*
X-105858Y209606D01*
X-105850Y209646D01*
X-105292Y210489D01*
X-101900Y213881D01*
X-101169Y214391D01*
X-100185Y214623D01*
X-99188Y214454D01*
X-98337Y213909D01*
X-97765Y213075D01*
X-97564Y212084D01*
X-97564Y209176D01*
X-96306Y206139D01*
X-93981Y203814D01*
X-90944Y202556D01*
X-87656Y202556D01*
X-84619Y203814D01*
X-82294Y206139D01*
X-80858Y209606D01*
X-80850Y209646D01*
X-80292Y210489D01*
X-76900Y213881D01*
X-76169Y214391D01*
X-75185Y214623D01*
X-74188Y214454D01*
X-73337Y213909D01*
X-72765Y213075D01*
X-72564Y212084D01*
X-72564Y209176D01*
X-71306Y206139D01*
X-68981Y203814D01*
X-65944Y202556D01*
X-62656Y202556D01*
X-59619Y203814D01*
X-57294Y206139D01*
X-55858Y209606D01*
X-55850Y209646D01*
X-55292Y210489D01*
X-52916Y212865D01*
X-52185Y213375D01*
X-51201Y213607D01*
X-50204Y213438D01*
X-50104Y213373D01*
X-50104Y213868D01*
X-30518Y213868D01*
X-30592Y214048D01*
X-30785Y214939D01*
X-30615Y215936D01*
X-30070Y216787D01*
X-29237Y217359D01*
X-28246Y217560D01*
X-7242Y217560D01*
X-6289Y217374D01*
X-5446Y216816D01*
X109048Y102322D01*
X109591Y101516D01*
X109792Y100526D01*
X109792Y70494D01*
X110797Y68067D01*
X121017Y57847D01*
X121715Y57380D01*
X122432Y56664D01*
X125396Y55436D01*
X128604Y55436D01*
X131616Y56684D01*
X132507Y56876D01*
X133504Y56706D01*
X134355Y56161D01*
X134927Y55328D01*
X135128Y54337D01*
X135128Y47263D01*
X134964Y46366D01*
X134426Y45510D01*
X133597Y44932D01*
X132608Y44723D01*
X131616Y44916D01*
X128604Y46164D01*
X125396Y46164D01*
X122432Y44936D01*
X120164Y42668D01*
X118936Y39704D01*
X118936Y36496D01*
X120164Y33532D01*
X122432Y31264D01*
X125396Y30036D01*
X128604Y30036D01*
X131616Y31284D01*
X132507Y31476D01*
X133504Y31306D01*
X134355Y30761D01*
X134927Y29928D01*
X135128Y28937D01*
X135128Y21863D01*
X134964Y20966D01*
X134426Y20110D01*
X133597Y19532D01*
X132608Y19323D01*
X131616Y19516D01*
X128604Y20764D01*
X125396Y20764D01*
X122432Y19536D01*
X120164Y17268D01*
X118936Y14304D01*
X118936Y11096D01*
X120164Y8132D01*
X122432Y5864D01*
X125396Y4636D01*
X126324Y4636D01*
X127202Y4480D01*
X128062Y3948D01*
X128647Y3124D01*
X128864Y2137D01*
X128679Y1143D01*
X128121Y300D01*
X124252Y-3569D01*
X123689Y-3993D01*
X123661Y-4009D01*
X123169Y-4628D01*
X122976Y-4845D01*
X122417Y-5403D01*
X122405Y-5434D01*
X122047Y-6041D01*
X121713Y-6462D01*
X121696Y-6449D01*
X121481Y-6815D01*
X120164Y-8132D01*
X118936Y-11096D01*
X118936Y-14304D01*
X120164Y-17268D01*
X122432Y-19536D01*
X125396Y-20764D01*
X128356Y-20764D01*
X129234Y-20920D01*
X130094Y-21452D01*
X130679Y-22276D01*
X130896Y-23264D01*
X130711Y-24257D01*
X130153Y-25100D01*
X125447Y-29806D01*
X124623Y-30356D01*
X122432Y-31264D01*
X120164Y-33532D01*
X118936Y-36496D01*
X118936Y-39704D01*
X120164Y-42668D01*
X122432Y-44936D01*
X125396Y-46164D01*
X128604Y-46164D01*
X131568Y-44936D01*
X133836Y-42668D01*
X135143Y-39513D01*
X135250Y-38966D01*
X135808Y-38124D01*
X156475Y-17457D01*
X157480Y-15030D01*
X157480Y141738D01*
X156475Y144165D01*
X96129Y204511D01*
X95594Y205298D01*
X95385Y206287D01*
X95578Y207279D01*
X96364Y209176D01*
X96364Y212464D01*
X95106Y215501D01*
X94843Y215764D01*
X94333Y216495D01*
X94100Y217479D01*
X94270Y218476D01*
X94815Y219327D01*
X95648Y219899D01*
X96639Y220100D01*
X103124Y220100D01*
X104002Y219944D01*
X104862Y219412D01*
X105447Y218588D01*
X105664Y217601D01*
X105478Y216607D01*
X105409Y216502D01*
X104318Y213868D01*
X121882Y213868D01*
X120829Y216411D01*
X120770Y216495D01*
X120537Y217479D01*
X120707Y218476D01*
X121252Y219327D01*
X122085Y219899D01*
X123076Y220100D01*
X128664Y220100D01*
X129618Y219914D01*
X130461Y219356D01*
X164864Y184953D01*
X165407Y184147D01*
X165608Y183156D01*
X165608Y80474D01*
X166613Y78047D01*
X199459Y45201D01*
X201886Y44196D01*
X224812Y44196D01*
X225766Y44010D01*
X226609Y43452D01*
X236492Y33569D01*
X237035Y32763D01*
X237236Y31772D01*
X237236Y-120672D01*
X237050Y-121626D01*
X236492Y-122469D01*
X223001Y-135959D01*
X221996Y-138386D01*
X221996Y-145020D01*
X221810Y-145974D01*
X221252Y-146816D01*
X219456Y-148612D01*
X219456Y-156188D01*
X221252Y-157984D01*
X221795Y-158789D01*
X221996Y-159780D01*
X221996Y-170420D01*
X221810Y-171374D01*
X221252Y-172216D01*
X219456Y-174012D01*
X219456Y-181588D01*
X221252Y-183384D01*
X221795Y-184189D01*
X221996Y-185180D01*
X221996Y-195820D01*
X221810Y-196774D01*
X221252Y-197616D01*
X219456Y-199412D01*
X219456Y-206988D01*
X221252Y-208784D01*
X221795Y-209589D01*
X221996Y-210580D01*
X221996Y-221220D01*
X221810Y-222174D01*
X221252Y-223016D01*
X219456Y-224812D01*
X219456Y-232388D01*
X221252Y-234184D01*
X221795Y-234989D01*
X221996Y-235980D01*
X221996Y-246620D01*
X221810Y-247574D01*
X221252Y-248416D01*
X219456Y-250212D01*
X219456Y-257788D01*
X221252Y-259584D01*
X221795Y-260389D01*
X221996Y-261380D01*
X221996Y-262912D01*
X221810Y-263866D01*
X221252Y-264709D01*
X213909Y-272052D01*
X213103Y-272595D01*
X212112Y-272796D01*
X194288Y-272796D01*
X193334Y-272610D01*
X192492Y-272052D01*
X168841Y-248401D01*
X166414Y-247396D01*
X138104Y-247396D01*
X137208Y-247232D01*
X136352Y-246695D01*
X135774Y-245865D01*
X135565Y-244876D01*
X135667Y-244348D01*
X118342Y-244348D01*
X118434Y-244775D01*
X118265Y-245772D01*
X117720Y-246623D01*
X116886Y-247195D01*
X115896Y-247396D01*
X112986Y-247396D01*
X110559Y-248401D01*
X99609Y-259352D01*
X98803Y-259895D01*
X97812Y-260096D01*
X-121366Y-260096D01*
X-122338Y-259903D01*
X-125396Y-258636D01*
X-128604Y-258636D01*
X-131568Y-259864D01*
X-133836Y-262132D01*
X-135064Y-265096D01*
X-135064Y-268304D01*
X-133836Y-271268D01*
X-131568Y-273536D01*
X-128604Y-274764D01*
X-125396Y-274764D01*
X-122338Y-273497D01*
X-121366Y-273304D01*
X102914Y-273304D01*
X105341Y-272299D01*
X114600Y-263040D01*
X115331Y-262530D01*
X116315Y-262297D01*
X117312Y-262466D01*
X118163Y-263011D01*
X118735Y-263845D01*
X118936Y-264836D01*
X118936Y-268304D01*
X120203Y-271362D01*
X120396Y-272334D01*
X120396Y-282216D01*
X120210Y-283170D01*
X119652Y-284013D01*
X118405Y-285260D01*
X117599Y-285803D01*
X116608Y-286004D01*
X-201952Y-286004D01*
X-202906Y-285818D01*
X-203749Y-285260D01*
X-208829Y-280180D01*
X-209339Y-279449D01*
X-209571Y-278465D01*
X-209402Y-277468D01*
X-208857Y-276617D01*
X-208023Y-276045D01*
X-207032Y-275844D01*
X-193761Y-275844D01*
X-190400Y-274452D01*
X-187828Y-271880D01*
X-186436Y-268519D01*
X-186436Y-264881D01*
X-187828Y-261520D01*
X-190400Y-258948D01*
X-193761Y-257556D01*
X-212639Y-257556D01*
X-216000Y-258948D01*
X-217660Y-260608D01*
X-218391Y-261118D01*
X-219375Y-261351D01*
X-220372Y-261182D01*
X-221223Y-260637D01*
X-221795Y-259803D01*
X-221996Y-258812D01*
X-221996Y-249188D01*
X-221840Y-248310D01*
X-221308Y-247450D01*
X-220484Y-246865D01*
X-219497Y-246648D01*
X-218503Y-246833D01*
X-217660Y-247392D01*
X-216000Y-249052D01*
X-212639Y-250444D01*
X-193761Y-250444D01*
X-190400Y-249052D01*
X-187828Y-246480D01*
X-186436Y-243119D01*
X-186436Y-240239D01*
X-186250Y-239286D01*
X-185692Y-238443D01*
X-179641Y-232392D01*
X-178836Y-231849D01*
X-177845Y-231648D01*
X-136321Y-231648D01*
X-135443Y-231804D01*
X-134583Y-232336D01*
X-133998Y-233160D01*
X-133781Y-234148D01*
X-133967Y-235141D01*
X-134525Y-235984D01*
X-134698Y-236157D01*
X-135566Y-238252D01*
X-130048Y-238252D01*
X-130048Y-230882D01*
X-130171Y-230708D01*
X-130388Y-229721D01*
X-130203Y-228727D01*
X-129645Y-227884D01*
X-126314Y-224554D01*
X-125490Y-224003D01*
X-122432Y-222736D01*
X-120164Y-220468D01*
X-118936Y-217504D01*
X-118936Y-214296D01*
X-120164Y-211332D01*
X-122432Y-209064D01*
X-125396Y-207836D01*
X-128604Y-207836D01*
X-131568Y-209064D01*
X-133836Y-211332D01*
X-135103Y-214390D01*
X-135654Y-215214D01*
X-138136Y-217696D01*
X-138941Y-218239D01*
X-139932Y-218440D01*
X-182966Y-218440D01*
X-183815Y-218623D01*
X-184812Y-218453D01*
X-185663Y-217909D01*
X-186235Y-217075D01*
X-186436Y-216084D01*
X-186436Y-214081D01*
X-187428Y-211685D01*
X-187621Y-210754D01*
X-187436Y-209760D01*
X-186878Y-208917D01*
X-139400Y-161440D01*
X-138669Y-160930D01*
X-137685Y-160697D01*
X-136688Y-160866D01*
X-135837Y-161411D01*
X-135265Y-162245D01*
X-135064Y-163236D01*
X-135064Y-166704D01*
X-133836Y-169668D01*
X-131568Y-171936D01*
X-128604Y-173164D01*
X-125136Y-173164D01*
X-124258Y-173320D01*
X-123398Y-173852D01*
X-122813Y-174676D01*
X-122596Y-175664D01*
X-122781Y-176657D01*
X-123340Y-177500D01*
X-127686Y-181846D01*
X-128510Y-182397D01*
X-131568Y-183664D01*
X-133836Y-185932D01*
X-135064Y-188896D01*
X-135064Y-192104D01*
X-133836Y-195068D01*
X-131568Y-197336D01*
X-128604Y-198564D01*
X-125396Y-198564D01*
X-122432Y-197336D01*
X-120164Y-195068D01*
X-118897Y-192010D01*
X-118346Y-191186D01*
X-86909Y-159748D01*
X-86103Y-159205D01*
X-85112Y-159004D01*
X116995Y-159004D01*
X117892Y-159168D01*
X118748Y-159706D01*
X119326Y-160535D01*
X119535Y-161524D01*
X119342Y-162516D01*
X118936Y-163496D01*
X118936Y-166704D01*
X120164Y-169668D01*
X122432Y-171936D01*
X125396Y-173164D01*
X128604Y-173164D01*
X131662Y-171897D01*
X132634Y-171704D01*
X142538Y-171704D01*
X144965Y-170699D01*
X204176Y-111488D01*
X204981Y-110945D01*
X205972Y-110744D01*
X207540Y-110744D01*
X208418Y-110900D01*
X209278Y-111432D01*
X209863Y-112256D01*
X210080Y-113244D01*
X209895Y-114237D01*
X209337Y-115080D01*
X144313Y-180104D01*
X143507Y-180647D01*
X142516Y-180848D01*
X129500Y-180848D01*
X128977Y-180763D01*
X127871Y-180842D01*
X127691Y-180848D01*
X126584Y-180848D01*
X126344Y-180905D01*
X125353Y-181400D01*
X125189Y-181475D01*
X124166Y-181899D01*
X123965Y-182043D01*
X123240Y-182880D01*
X123117Y-183012D01*
X122845Y-183283D01*
X122747Y-183349D01*
X120164Y-185932D01*
X118936Y-188896D01*
X118936Y-192104D01*
X120164Y-195068D01*
X122432Y-197336D01*
X125396Y-198564D01*
X128604Y-198564D01*
X131568Y-197336D01*
X134104Y-194800D01*
X134910Y-194257D01*
X135900Y-194056D01*
X147618Y-194056D01*
X150045Y-193051D01*
X188704Y-154392D01*
X189435Y-153882D01*
X190419Y-153649D01*
X191416Y-153818D01*
X192267Y-154363D01*
X192839Y-155197D01*
X193040Y-156188D01*
X193040Y-156608D01*
X199736Y-163304D01*
X200262Y-164072D01*
X200479Y-165060D01*
X200294Y-166053D01*
X199736Y-166896D01*
X193040Y-173592D01*
X193040Y-174752D01*
X213360Y-174752D01*
X213360Y-173592D01*
X206664Y-166896D01*
X206138Y-166128D01*
X205921Y-165141D01*
X206106Y-164147D01*
X206664Y-163304D01*
X213360Y-156608D01*
X213360Y-155448D01*
X200152Y-155448D01*
X200152Y-149352D01*
X213360Y-149352D01*
X213360Y-148192D01*
X207408Y-142240D01*
X206988Y-142240D01*
X206110Y-142084D01*
X205250Y-141552D01*
X204665Y-140728D01*
X204448Y-139741D01*
X204633Y-138747D01*
X205192Y-137904D01*
X229119Y-113977D01*
X230124Y-111550D01*
X230124Y-16466D01*
X229119Y-14039D01*
X220266Y-5187D01*
X219731Y-4400D01*
X219522Y-3411D01*
X219716Y-2419D01*
X219964Y-1819D01*
X219964Y1819D01*
X218572Y5180D01*
X216000Y7752D01*
X212639Y9144D01*
X202416Y9144D01*
X201538Y9300D01*
X200678Y9832D01*
X200093Y10656D01*
X199876Y11644D01*
X200061Y12637D01*
X200620Y13480D01*
X202652Y15512D01*
X203457Y16055D01*
X204448Y16256D01*
X212639Y16256D01*
X216000Y17648D01*
X218572Y20220D01*
X219964Y23581D01*
X219964Y27219D01*
X218572Y30580D01*
X216000Y33152D01*
X212639Y34544D01*
X193761Y34544D01*
X190400Y33152D01*
X187828Y30580D01*
X186436Y27219D01*
X186436Y23581D01*
X187428Y21185D01*
X187621Y20254D01*
X187436Y19260D01*
X186878Y18417D01*
X172709Y4249D01*
X171704Y1822D01*
X171704Y-18564D01*
X171518Y-19518D01*
X170960Y-20361D01*
X135169Y-56152D01*
X134363Y-56695D01*
X133372Y-56896D01*
X132634Y-56896D01*
X131662Y-56703D01*
X128604Y-55436D01*
X125396Y-55436D01*
X122432Y-56664D01*
X120164Y-58932D01*
X118936Y-61896D01*
X118936Y-65104D01*
X120164Y-68068D01*
X122432Y-70336D01*
X125396Y-71564D01*
X128604Y-71564D01*
X131662Y-70297D01*
X132634Y-70104D01*
X137160Y-70104D01*
X138076Y-70275D01*
X138927Y-70820D01*
X139499Y-71653D01*
X139700Y-72644D01*
X139700Y-85719D01*
X139550Y-86578D01*
X139026Y-87442D01*
X138206Y-88033D01*
X137221Y-88258D01*
X136226Y-88081D01*
X135378Y-87529D01*
X134813Y-86691D01*
X133836Y-84332D01*
X131568Y-82064D01*
X128604Y-80836D01*
X125396Y-80836D01*
X122432Y-82064D01*
X120164Y-84332D01*
X118936Y-87296D01*
X118936Y-90504D01*
X120164Y-93468D01*
X122432Y-95736D01*
X125396Y-96964D01*
X126324Y-96964D01*
X127202Y-97120D01*
X128062Y-97652D01*
X128647Y-98476D01*
X128864Y-99464D01*
X128679Y-100457D01*
X128121Y-101300D01*
X121401Y-108019D01*
X121259Y-108364D01*
X120708Y-109188D01*
X120164Y-109732D01*
X118936Y-112696D01*
X118936Y-115904D01*
X120164Y-118868D01*
X122432Y-121136D01*
X125396Y-122364D01*
X127340Y-122364D01*
X128218Y-122520D01*
X129078Y-123052D01*
X129663Y-123876D01*
X129880Y-124864D01*
X129695Y-125857D01*
X129137Y-126700D01*
X123713Y-132124D01*
X122888Y-132675D01*
X122432Y-132864D01*
X120164Y-135132D01*
X118936Y-138096D01*
X118936Y-141304D01*
X119342Y-142284D01*
X119534Y-143175D01*
X119364Y-144172D01*
X118820Y-145023D01*
X117986Y-145595D01*
X116995Y-145796D01*
X-90214Y-145796D01*
X-92641Y-146801D01*
X-114600Y-168761D01*
X-115331Y-169271D01*
X-116315Y-169503D01*
X-117312Y-169334D01*
X-118163Y-168789D01*
X-118735Y-167955D01*
X-118936Y-166964D01*
X-118936Y-163496D01*
X-120164Y-160532D01*
X-122432Y-158264D01*
X-125396Y-157036D01*
X-128864Y-157036D01*
X-129742Y-156880D01*
X-130602Y-156348D01*
X-131187Y-155524D01*
X-131404Y-154537D01*
X-131219Y-153543D01*
X-130661Y-152700D01*
X-126314Y-148354D01*
X-125490Y-147803D01*
X-122432Y-146536D01*
X-120164Y-144268D01*
X-118936Y-141304D01*
X-118936Y-138096D01*
X-120164Y-135132D01*
X-122432Y-132864D01*
X-123284Y-132511D01*
X-124050Y-132016D01*
X-124635Y-131192D01*
X-124852Y-130204D01*
X-124667Y-129211D01*
X-124108Y-128368D01*
X-121401Y-125661D01*
X-120396Y-123234D01*
X-120396Y-119934D01*
X-120203Y-118962D01*
X-118936Y-115904D01*
X-118936Y-112696D01*
X-120164Y-109732D01*
X-122432Y-107464D01*
X-125396Y-106236D01*
X-128604Y-106236D01*
X-131568Y-107464D01*
X-133836Y-109732D01*
X-135064Y-112696D01*
X-135064Y-115904D01*
X-134325Y-117688D01*
X-134132Y-118620D01*
X-134317Y-119613D01*
X-134876Y-120456D01*
X-182100Y-167681D01*
X-182831Y-168191D01*
X-183815Y-168423D01*
X-184812Y-168254D01*
X-185663Y-167709D01*
X-186235Y-166875D01*
X-186436Y-165884D01*
X-186436Y-163281D01*
X-187828Y-159920D01*
X-190400Y-157348D01*
X-193761Y-155956D01*
X-212639Y-155956D01*
X-216000Y-157348D01*
X-217660Y-159008D01*
X-218391Y-159518D01*
X-219375Y-159751D01*
X-220372Y-159582D01*
X-221223Y-159037D01*
X-221795Y-158203D01*
X-221996Y-157212D01*
X-221996Y-147588D01*
X-221840Y-146710D01*
X-221308Y-145850D01*
X-220484Y-145265D01*
X-219497Y-145048D01*
X-218503Y-145233D01*
X-217660Y-145792D01*
X-216000Y-147452D01*
X-212639Y-148844D01*
X-193761Y-148844D01*
X-190400Y-147452D01*
X-187828Y-144880D01*
X-186436Y-141519D01*
X-186436Y-137881D01*
X-187828Y-134520D01*
X-190400Y-131948D01*
X-193761Y-130556D01*
X-212639Y-130556D01*
X-216000Y-131948D01*
X-217660Y-133608D01*
X-218391Y-134118D01*
X-219375Y-134351D01*
X-220372Y-134182D01*
X-221223Y-133637D01*
X-221795Y-132803D01*
X-221996Y-131812D01*
X-221996Y-122188D01*
X-221840Y-121310D01*
X-221308Y-120450D01*
X-220484Y-119865D01*
X-219497Y-119648D01*
X-218503Y-119833D01*
X-217660Y-120392D01*
X-216000Y-122052D01*
X-212639Y-123444D01*
X-193761Y-123444D01*
X-190400Y-122052D01*
X-187828Y-119480D01*
X-186436Y-116119D01*
X-186436Y-114532D01*
X-186250Y-113578D01*
X-185692Y-112736D01*
X-171745Y-98788D01*
X-170939Y-98245D01*
X-169948Y-98044D01*
X-129777Y-98044D01*
X-129670Y-98065D01*
X-127991Y-98044D01*
X-127960Y-98044D01*
X-126660Y-98044D01*
X-125465Y-97532D01*
X-125436Y-97520D01*
X-124236Y-97023D01*
X-123718Y-96491D01*
X-122872Y-95919D01*
X-122432Y-95736D01*
X-120164Y-93468D01*
X-118936Y-90504D01*
X-118936Y-87296D01*
X-120164Y-84332D01*
X-122432Y-82064D01*
X-125396Y-80836D01*
X-128604Y-80836D01*
X-131568Y-82064D01*
X-133596Y-84092D01*
X-134402Y-84635D01*
X-135392Y-84836D01*
X-175050Y-84836D01*
X-177477Y-85841D01*
X-182100Y-90465D01*
X-182831Y-90975D01*
X-183815Y-91207D01*
X-184812Y-91038D01*
X-185663Y-90493D01*
X-186235Y-89659D01*
X-186436Y-88668D01*
X-186436Y-87100D01*
X-186250Y-86146D01*
X-185692Y-85304D01*
X-171745Y-71356D01*
X-170939Y-70813D01*
X-169948Y-70612D01*
X-131408Y-70612D01*
X-130436Y-70805D01*
X-128604Y-71564D01*
X-125396Y-71564D01*
X-122432Y-70336D01*
X-120164Y-68068D01*
X-118936Y-65104D01*
X-118936Y-61896D01*
X-120164Y-58932D01*
X-122432Y-56664D01*
X-125396Y-55436D01*
X-128604Y-55436D01*
X-131572Y-56666D01*
X-132370Y-57203D01*
X-133360Y-57404D01*
X-175050Y-57404D01*
X-177477Y-58409D01*
X-182100Y-63033D01*
X-182831Y-63543D01*
X-183815Y-63775D01*
X-184812Y-63606D01*
X-185663Y-63061D01*
X-186235Y-62227D01*
X-186259Y-62109D01*
X-186684Y-61081D01*
X-186877Y-60150D01*
X-186692Y-59156D01*
X-186134Y-58313D01*
X-176317Y-48496D01*
X-175511Y-47953D01*
X-174520Y-47752D01*
X-129500Y-47752D01*
X-128977Y-47837D01*
X-127871Y-47758D01*
X-127691Y-47752D01*
X-126584Y-47752D01*
X-126344Y-47695D01*
X-125353Y-47200D01*
X-125189Y-47125D01*
X-124166Y-46701D01*
X-123965Y-46557D01*
X-123240Y-45720D01*
X-123117Y-45588D01*
X-122845Y-45317D01*
X-122747Y-45251D01*
X-120164Y-42668D01*
X-118936Y-39704D01*
X-118936Y-36496D01*
X-120164Y-33532D01*
X-122432Y-31264D01*
X-125396Y-30036D01*
X-128604Y-30036D01*
X-131568Y-31264D01*
X-134104Y-33800D01*
X-134910Y-34343D01*
X-135900Y-34544D01*
X-179622Y-34544D01*
X-182049Y-35549D01*
X-182677Y-36178D01*
X-183427Y-36696D01*
X-184413Y-36921D01*
X-185408Y-36744D01*
X-186255Y-36192D01*
X-186820Y-35354D01*
X-187828Y-32920D01*
X-190400Y-30348D01*
X-193761Y-28956D01*
X-210080Y-28956D01*
X-210958Y-28800D01*
X-211818Y-28268D01*
X-212403Y-27444D01*
X-212620Y-26457D01*
X-212435Y-25463D01*
X-211877Y-24620D01*
X-209845Y-22588D01*
X-209039Y-22045D01*
X-208048Y-21844D01*
X-193761Y-21844D01*
X-190400Y-20452D01*
X-187828Y-17880D01*
X-186436Y-14519D01*
X-186436Y-10881D01*
X-187828Y-7520D01*
X-190400Y-4948D01*
X-193761Y-3556D01*
X-201468Y-3556D01*
X-202440Y-3363D01*
X-202514Y-3332D01*
X-202886Y-3141D01*
X-203359Y-2846D01*
X-203624Y-2802D01*
X-204178Y-2643D01*
X-204426Y-2540D01*
X-204983Y-2540D01*
X-205401Y-2505D01*
X-205950Y-2414D01*
X-206212Y-2475D01*
X-206785Y-2540D01*
X-207054Y-2540D01*
X-207568Y-2753D01*
X-207967Y-2881D01*
X-208510Y-3007D01*
X-208616Y-3083D01*
X-209102Y-3355D01*
X-210093Y-3556D01*
X-212639Y-3556D01*
X-216000Y-4948D01*
X-218572Y-7520D01*
X-219964Y-10881D01*
X-219964Y-12976D01*
X-220150Y-13930D01*
X-220708Y-14773D01*
X-234199Y-28263D01*
X-235204Y-30690D01*
X-235204Y-271062D01*
X-234199Y-273489D01*
X-209481Y-298207D01*
X-207054Y-299212D01*
G37*
G36*
X212589Y216154D02*
X219211Y216154D01*
X225606Y217868D01*
X231340Y221178D01*
X236022Y225860D01*
X239332Y231594D01*
X241046Y237989D01*
X241046Y244611D01*
X239332Y251006D01*
X236022Y256740D01*
X231340Y261422D01*
X225606Y264732D01*
X219211Y266446D01*
X212589Y266446D01*
X206194Y264732D01*
X200460Y261422D01*
X195778Y256740D01*
X192468Y251006D01*
X190754Y244611D01*
X190754Y237989D01*
X192468Y231594D01*
X195778Y225860D01*
X200460Y221178D01*
X206194Y217868D01*
X212589Y216154D01*
G37*
G36*
X-44557Y202953D02*
X-42348Y202038D01*
X-42348Y207772D01*
X-48082Y207772D01*
X-47167Y205563D01*
X-44557Y202953D01*
G37*
G36*
X-36252Y207772D02*
X-36252Y202038D01*
X-34043Y202953D01*
X-31433Y205563D01*
X-30518Y207772D01*
X-36252Y207772D01*
G37*
G36*
X107843Y202953D02*
X110052Y202038D01*
X110052Y207772D01*
X104318Y207772D01*
X105233Y205563D01*
X107843Y202953D01*
G37*
G36*
X116148Y207772D02*
X116148Y202038D01*
X118357Y202953D01*
X120967Y205563D01*
X121882Y207772D01*
X116148Y207772D01*
G37*
G36*
X-184912Y161868D02*
X-179178Y161868D01*
X-180093Y164077D01*
X-182703Y166687D01*
X-184912Y167602D01*
X-184912Y161868D01*
G37*
G36*
X-184912Y155772D02*
X-184912Y150038D01*
X-182703Y150953D01*
X-180093Y153563D01*
X-179178Y155772D01*
X-184912Y155772D01*
G37*
G36*
X191008Y85528D02*
X196742Y85528D01*
X195827Y87737D01*
X193217Y90347D01*
X191008Y91262D01*
X191008Y85528D01*
G37*
G36*
X-220555Y41148D02*
X-206248Y41148D01*
X-206248Y48260D01*
X-212841Y48260D01*
X-216575Y46713D01*
X-219433Y43855D01*
X-220555Y41148D01*
G37*
G36*
X-212841Y27940D02*
X-206248Y27940D01*
X-206248Y35052D01*
X-220555Y35052D01*
X-219433Y32345D01*
X-216575Y29487D01*
X-212841Y27940D01*
G37*
G36*
X-212639Y3556D02*
X-193761Y3556D01*
X-190400Y4948D01*
X-187828Y7520D01*
X-186436Y10881D01*
X-186436Y14519D01*
X-187828Y17880D01*
X-190400Y20452D01*
X-193761Y21844D01*
X-212639Y21844D01*
X-216000Y20452D01*
X-218572Y17880D01*
X-219964Y14519D01*
X-219964Y10881D01*
X-218572Y7520D01*
X-216000Y4948D01*
X-212639Y3556D01*
G37*
G36*
X193040Y-200152D02*
X213360Y-200152D01*
X213360Y-198992D01*
X206664Y-192296D01*
X206138Y-191528D01*
X205921Y-190541D01*
X206106Y-189547D01*
X206664Y-188704D01*
X213360Y-182008D01*
X213360Y-180848D01*
X193040Y-180848D01*
X193040Y-182008D01*
X199736Y-188704D01*
X200262Y-189472D01*
X200479Y-190460D01*
X200294Y-191453D01*
X199736Y-192296D01*
X193040Y-198992D01*
X193040Y-200152D01*
G37*
G36*
X193040Y-225552D02*
X213360Y-225552D01*
X213360Y-224392D01*
X206664Y-217696D01*
X206138Y-216928D01*
X205921Y-215941D01*
X206106Y-214947D01*
X206664Y-214104D01*
X213360Y-207408D01*
X213360Y-206248D01*
X193040Y-206248D01*
X193040Y-207408D01*
X199736Y-214104D01*
X200262Y-214872D01*
X200479Y-215860D01*
X200294Y-216853D01*
X199736Y-217696D01*
X193040Y-224392D01*
X193040Y-225552D01*
G37*
G36*
X125396Y-223964D02*
X128604Y-223964D01*
X131568Y-222736D01*
X133836Y-220468D01*
X135064Y-217504D01*
X135064Y-214296D01*
X133836Y-211332D01*
X131568Y-209064D01*
X128604Y-207836D01*
X125396Y-207836D01*
X122432Y-209064D01*
X120164Y-211332D01*
X118936Y-214296D01*
X118936Y-217504D01*
X120164Y-220468D01*
X122432Y-222736D01*
X125396Y-223964D01*
G37*
G36*
X193040Y-250952D02*
X213360Y-250952D01*
X213360Y-249792D01*
X206664Y-243096D01*
X206138Y-242328D01*
X205921Y-241341D01*
X206106Y-240347D01*
X206664Y-239504D01*
X213360Y-232808D01*
X213360Y-231648D01*
X193040Y-231648D01*
X193040Y-232808D01*
X199736Y-239504D01*
X200262Y-240272D01*
X200479Y-241260D01*
X200294Y-242253D01*
X199736Y-243096D01*
X193040Y-249792D01*
X193040Y-250952D01*
G37*
G36*
X-123952Y-238252D02*
X-118434Y-238252D01*
X-119302Y-236157D01*
X-121857Y-233602D01*
X-123952Y-232734D01*
X-123952Y-238252D01*
G37*
G36*
X118434Y-238252D02*
X123952Y-238252D01*
X123952Y-232734D01*
X121857Y-233602D01*
X119302Y-236157D01*
X118434Y-238252D01*
G37*
G36*
X130048Y-238252D02*
X135566Y-238252D01*
X134698Y-236157D01*
X132143Y-233602D01*
X130048Y-232734D01*
X130048Y-238252D01*
G37*
G36*
X-123952Y-244348D02*
X-123952Y-249866D01*
X-121857Y-248998D01*
X-119302Y-246443D01*
X-118434Y-244348D01*
X-123952Y-244348D01*
G37*
G36*
X-132143Y-248998D02*
X-130048Y-249866D01*
X-130048Y-244348D01*
X-135566Y-244348D01*
X-134698Y-246443D01*
X-132143Y-248998D01*
G37*
G36*
X206248Y-264160D02*
X207408Y-264160D01*
X213360Y-258208D01*
X213360Y-257048D01*
X206248Y-257048D01*
X206248Y-264160D01*
G37*
G36*
X198992Y-264160D02*
X200152Y-264160D01*
X200152Y-257048D01*
X193040Y-257048D01*
X193040Y-258208D01*
X198992Y-264160D01*
G37*
G36*
X-214428Y-314452D02*
X-206248Y-314452D01*
X-206248Y-306272D01*
X-209737Y-307717D01*
X-212983Y-310963D01*
X-214428Y-314452D01*
G37*
G36*
X-200152Y-314452D02*
X-191972Y-314452D01*
X-193417Y-310963D01*
X-196663Y-307717D01*
X-200152Y-306272D01*
X-200152Y-314452D01*
G37*
G36*
X191972Y-314452D02*
X200152Y-314452D01*
X200152Y-306272D01*
X196663Y-307717D01*
X193417Y-310963D01*
X191972Y-314452D01*
G37*
G36*
X206248Y-314452D02*
X214428Y-314452D01*
X212983Y-310963D01*
X209737Y-307717D01*
X206248Y-306272D01*
X206248Y-314452D01*
G37*
G36*
X-205293Y-353424D02*
X-201107Y-353424D01*
X-197239Y-351822D01*
X-197189Y-351772D01*
X-196383Y-351229D01*
X-195393Y-351028D01*
X195393Y-351028D01*
X196346Y-351214D01*
X197189Y-351772D01*
X197239Y-351822D01*
X201107Y-353424D01*
X205293Y-353424D01*
X209161Y-351822D01*
X212122Y-348861D01*
X213724Y-344993D01*
X213724Y-340807D01*
X212122Y-336939D01*
X209161Y-333978D01*
X207033Y-333097D01*
X206282Y-332616D01*
X205690Y-331796D01*
X205466Y-330811D01*
X205643Y-329815D01*
X206195Y-328968D01*
X207033Y-328403D01*
X209737Y-327283D01*
X212983Y-324037D01*
X214428Y-320548D01*
X191972Y-320548D01*
X193417Y-324037D01*
X196663Y-327283D01*
X199367Y-328403D01*
X200118Y-328884D01*
X200710Y-329704D01*
X200934Y-330689D01*
X200757Y-331684D01*
X200205Y-332532D01*
X199367Y-333097D01*
X197239Y-333978D01*
X197189Y-334028D01*
X196383Y-334571D01*
X195393Y-334772D01*
X-195393Y-334772D01*
X-196346Y-334586D01*
X-197189Y-334028D01*
X-197239Y-333978D01*
X-199367Y-333097D01*
X-200118Y-332616D01*
X-200710Y-331796D01*
X-200934Y-330811D01*
X-200757Y-329815D01*
X-200205Y-328968D01*
X-199367Y-328403D01*
X-196663Y-327283D01*
X-193417Y-324037D01*
X-191972Y-320548D01*
X-214428Y-320548D01*
X-212983Y-324037D01*
X-209737Y-327283D01*
X-207033Y-328403D01*
X-206282Y-328884D01*
X-205690Y-329704D01*
X-205466Y-330689D01*
X-205643Y-331684D01*
X-206195Y-332532D01*
X-207033Y-333097D01*
X-209161Y-333978D01*
X-212122Y-336939D01*
X-213724Y-340807D01*
X-213724Y-344993D01*
X-212122Y-348861D01*
X-209161Y-351822D01*
X-205293Y-353424D01*
G37*
G36*
X212589Y-418846D02*
X219211Y-418846D01*
X225606Y-417132D01*
X231340Y-413822D01*
X236022Y-409140D01*
X239332Y-403406D01*
X241046Y-397011D01*
X241046Y-390389D01*
X239332Y-383994D01*
X236022Y-378260D01*
X231340Y-373578D01*
X225606Y-370268D01*
X219211Y-368554D01*
X212589Y-368554D01*
X206194Y-370268D01*
X200460Y-373578D01*
X195778Y-378260D01*
X192468Y-383994D01*
X190754Y-390389D01*
X190754Y-397011D01*
X192468Y-403406D01*
X195778Y-409140D01*
X200460Y-413822D01*
X206194Y-417132D01*
X212589Y-418846D01*
G37*
G36*
X-219211Y-419100D02*
X-212589Y-419100D01*
X-206194Y-417386D01*
X-200460Y-414076D01*
X-195778Y-409394D01*
X-192468Y-403660D01*
X-190754Y-397265D01*
X-190754Y-390643D01*
X-192468Y-384248D01*
X-195778Y-378514D01*
X-200460Y-373832D01*
X-206194Y-370522D01*
X-212589Y-368808D01*
X-219211Y-368808D01*
X-225606Y-370522D01*
X-231340Y-373832D01*
X-236022Y-378514D01*
X-239332Y-384248D01*
X-241046Y-390643D01*
X-241046Y-397265D01*
X-239332Y-403660D01*
X-236022Y-409394D01*
X-231340Y-414076D01*
X-225606Y-417386D01*
X-219211Y-419100D01*
G37*
%LPD*%
D10*
X-114300Y210820D03*
X-89300Y210820D03*
X-64300Y210820D03*
X-39300Y210820D03*
X38100Y210820D03*
X63100Y210820D03*
X88100Y210820D03*
X113100Y210820D03*
X-187960Y83820D03*
X-187960Y108820D03*
X-187960Y133820D03*
X-187960Y158820D03*
X187960Y157480D03*
X187960Y132480D03*
X187960Y107480D03*
X187960Y82480D03*
D11*
X203200Y-342900D03*
X203200Y-317500D03*
X-203200Y-342900D03*
X-203200Y-317500D03*
D12*
X203200Y-152400D03*
X228600Y-152400D03*
X203200Y-177800D03*
X228600Y-177800D03*
X203200Y-203200D03*
X228600Y-203200D03*
X203200Y-228600D03*
X228600Y-228600D03*
X203200Y-254000D03*
X228600Y-254000D03*
D13*
X-195580Y38100D02*
X-210820Y38100D01*
X-210820Y12700D02*
X-195580Y12700D01*
X-195580Y-12700D02*
X-210820Y-12700D01*
X-210820Y-38100D02*
X-195580Y-38100D01*
X-195580Y-63500D02*
X-210820Y-63500D01*
X-210820Y-88900D02*
X-195580Y-88900D01*
X-195580Y-114300D02*
X-210820Y-114300D01*
X-210820Y-139700D02*
X-195580Y-139700D01*
X-195580Y-165100D02*
X-210820Y-165100D01*
X-210820Y-190500D02*
X-195580Y-190500D01*
X-195580Y-215900D02*
X-210820Y-215900D01*
X-210820Y-241300D02*
X-195580Y-241300D01*
X-195580Y-266700D02*
X-210820Y-266700D01*
X195580Y25400D02*
X210820Y25400D01*
X210820Y0D02*
X195580Y0D01*
X195580Y-25400D02*
X210820Y-25400D01*
X210820Y-50800D02*
X195580Y-50800D01*
X195580Y-76200D02*
X210820Y-76200D01*
X210820Y-101600D02*
X195580Y-101600D01*
D14*
X-127000Y88900D03*
X-127000Y63500D03*
X-127000Y38100D03*
X-127000Y12700D03*
X-127000Y-12700D03*
X-127000Y-38100D03*
X-127000Y-63500D03*
X-127000Y-88900D03*
X-127000Y-114300D03*
X-127000Y-139700D03*
X-127000Y-165100D03*
X-127000Y-190500D03*
X-127000Y-215900D03*
X-127000Y-241300D03*
X-127000Y-266700D03*
X127000Y88900D03*
X127000Y63500D03*
X127000Y38100D03*
X127000Y12700D03*
X127000Y-12700D03*
X127000Y-38100D03*
X127000Y-63500D03*
X127000Y-88900D03*
X127000Y-114300D03*
X127000Y-139700D03*
X127000Y-165100D03*
X127000Y-190500D03*
X127000Y-215900D03*
X127000Y-241300D03*
X127000Y-266700D03*
D15*
X-89300Y210820D02*
X-65932Y234188D01*
X-547Y234188D01*
X127000Y106641D02*
X127000Y88900D01*
X127000Y106641D02*
X-547Y234188D01*
X124704Y63500D02*
X127000Y63500D01*
X124704Y63500D02*
X116396Y71808D01*
X-50956Y224164D02*
X-64300Y210820D01*
X116396Y104313D02*
X116396Y71808D01*
X-3455Y224164D02*
X-50956Y224164D01*
X-3455Y224164D02*
X116396Y104313D01*
X141732Y4572D02*
X128016Y-9144D01*
X141732Y4572D02*
X141732Y132588D01*
X63187Y211133D01*
X128016Y-9144D02*
X127000Y-12700D01*
X63100Y210820D02*
X63187Y211133D01*
X150876Y-13716D02*
X127000Y-37592D01*
X127000Y-38100D01*
X150876Y140424D02*
X88100Y203200D01*
X88100Y210820D01*
X150876Y140424D02*
X150876Y-13716D01*
X178308Y508D02*
X203200Y25400D01*
X178308Y508D02*
X178308Y-22352D01*
X137160Y-63500D01*
X127000Y-63500D01*
X146304Y-92456D02*
X127000Y-111760D01*
X127000Y-114300D01*
X146304Y-92456D02*
X146304Y-72368D01*
X193272Y-25400D02*
X203200Y-25400D01*
X193272Y-25400D02*
X146304Y-72368D01*
X157988Y-107188D02*
X127000Y-138176D01*
X127000Y-139700D01*
X182880Y-50800D02*
X203200Y-50800D01*
X182880Y-50800D02*
X157988Y-75692D01*
X157988Y-107188D01*
X201168Y-105156D02*
X203200Y-101600D01*
X201168Y-105156D01*
X141224Y-165100D01*
X127000Y-165100D01*
X128016Y-187452D02*
X146304Y-187452D01*
X223520Y-110236D01*
X223520Y-17780D01*
X205740Y0D01*
X128016Y-187452D02*
X127000Y-190500D01*
X203200Y0D02*
X205740Y0D01*
X-128016Y-41148D02*
X-178308Y-41148D01*
X-201168Y-64008D01*
X-128016Y-41148D02*
X-127000Y-38100D01*
X-201168Y-64008D02*
X-203200Y-63500D01*
X-227212Y87512D02*
X-227212Y184623D01*
X-227212Y87512D02*
X-127000Y-12700D01*
X-227212Y184623D02*
X-150079Y261756D01*
X135469Y261756D01*
X210448Y186777D01*
X210448Y124449D01*
X193479Y107480D01*
X187960Y107480D01*
X-127000Y12700D02*
X-128016Y13716D01*
X-133135Y13716D01*
X-215528Y96109D02*
X-215528Y178295D01*
X-215528Y96109D02*
X-133135Y13716D01*
X-215528Y178295D02*
X-141211Y252612D01*
X131682Y252612D01*
X198764Y143284D02*
X187960Y132480D01*
X198764Y143284D02*
X198764Y185530D01*
X131682Y252612D01*
X-109728Y54864D02*
X-123444Y41148D01*
X-109728Y54864D02*
X-109728Y91440D01*
X-155448Y137160D01*
X-184060Y137160D01*
X-123444Y41148D02*
X-127000Y38100D01*
X-187960Y133820D02*
X-184060Y137160D01*
X-127508Y64008D02*
X-127000Y63500D01*
X-127508Y64008D02*
X-143148Y64008D01*
X-187960Y108820D01*
X-173736Y-64008D02*
X-128016Y-64008D01*
X-173736Y-64008D02*
X-201168Y-91440D01*
X-128016Y-64008D02*
X-127000Y-63500D01*
X-201168Y-91440D02*
X-203200Y-88900D01*
X-173736Y-91440D02*
X-128016Y-91440D01*
X-173736Y-91440D02*
X-196596Y-114300D01*
X-203200Y-114300D01*
X-128016Y-91440D02*
X-127000Y-88900D01*
X-127000Y-121920D02*
X-195580Y-190500D01*
X-203200Y-190500D01*
X-127000Y-121920D02*
X-127000Y-114300D01*
X-127000Y-139700D02*
X-203200Y-215900D01*
X-127000Y-190500D02*
X-88900Y-152400D01*
X131836Y-152400D01*
X173736Y-110500D01*
X173736Y-81520D01*
X179056Y-76200D02*
X203200Y-76200D01*
X179056Y-76200D02*
X173736Y-81520D01*
X-181632Y-225044D02*
X-197888Y-241300D01*
X-181632Y-225044D02*
X-136144Y-225044D01*
X-197888Y-241300D02*
X-203200Y-241300D01*
X-136144Y-225044D02*
X-127000Y-215900D01*
X228600Y-228600D02*
X228600Y-254000D01*
X228600Y-203200D02*
X228600Y-177800D01*
X228600Y-152400D01*
X228600Y-203200D02*
X228600Y-228600D01*
X172212Y81788D02*
X172212Y169164D01*
X172212Y186944D01*
X-114300Y210820D02*
X-123952Y201168D01*
X-172103Y201168D01*
X-203844Y169427D01*
X-203844Y99704D01*
X-187960Y83820D01*
X-127000Y-266700D02*
X101600Y-266700D01*
X114300Y-254000D01*
X165100Y-254000D01*
X215900Y-279400D02*
X228600Y-266700D01*
X228600Y-254000D01*
X190500Y-279400D02*
X165100Y-254000D01*
X190500Y-279400D02*
X215900Y-279400D01*
X228600Y-152400D02*
X228600Y-139700D01*
X243840Y-124460D01*
X243840Y35560D01*
X228600Y50800D01*
X203200Y50800D01*
X172212Y81788D01*
X-43601Y243332D02*
X-43737Y243468D01*
X-81652Y243468D01*
X-114300Y210820D01*
X-43601Y243332D02*
X5588Y243332D01*
X38100Y210820D01*
X183896Y157480D02*
X187960Y157480D01*
X183896Y157480D02*
X172212Y169164D01*
X53984Y226704D02*
X38100Y210820D01*
X53984Y226704D02*
X132452Y226704D01*
X172212Y186944D01*
D16*
X203200Y-152400D02*
X203200Y-254000D01*
D15*
X127000Y-266700D02*
X127000Y-286004D01*
X120396Y-292608D01*
X-205740Y-292608D01*
X-228600Y-269748D01*
X-228600Y-32004D01*
X-205740Y-9144D01*
X-203200Y-12700D01*
D16*
X-203200Y-342900D02*
X203200Y-342900D01*
M02*
