M48
;GenerationSoftware,Autodesk,EAGLE,9.7.0*%
;CreationDate,2024-11-08T09:56:34Z*%
FMAT,2
ICI,OFF
METRIC,TZ,000.000
T5C0.800
T4C0.840
T3C1.016
T2C1.200
T1C2.997
%
G90
M71
T1
X21590Y24130
X-21590Y24130
X-21590Y-39395
X21590Y-39370
T2
X20320Y-31750
X-20320Y-34290
X20320Y-34290
X-20320Y-31750
T3
X-20320Y-3810
X-20320Y-6350
X-20320Y-8890
X-20320Y-11430
X-20320Y-13970
X-20320Y-16510
X-20320Y-19050
X-20320Y-21590
X-20320Y-24130
X-20320Y-26670
X20320Y2540
X20320Y0
X20320Y-2540
X20320Y-5080
X20320Y-7620
X20320Y-10160
X20320Y-15240
X22860Y-15240
X20320Y-17780
X22860Y-17780
X20320Y-20320
X22860Y-20320
X20320Y-22860
X22860Y-22860
X20320Y-25400
X22860Y-25400
X-20320Y3810
X-20320Y1270
X-20320Y-1270
T4
X-11430Y21082
X-8930Y21082
X-6430Y21082
X-3930Y21082
X3810Y21082
X6310Y21082
X11310Y21082
X-18796Y8382
X-18796Y10882
X-18796Y13382
X-18796Y15882
X18796Y15748
X18796Y13248
X18796Y10748
X18796Y8248
X8810Y21082
T5
X-12700Y8890
X-12700Y6350
X-12700Y3810
X-12700Y1270
X-12700Y-1270
X-12700Y-3810
X-12700Y-6350
X-12700Y-8890
X-12700Y-11430
X-12700Y-13970
X-12700Y-16510
X-12700Y-19050
X-12700Y-21590
X-12700Y-24130
X-12700Y-26670
X12700Y8890
X12700Y6350
X12700Y3810
X12700Y1270
X12700Y-1270
X12700Y-3810
X12700Y-6350
X12700Y-8890
X12700Y-11430
X12700Y-13970
X12700Y-16510
X12700Y-19050
X12700Y-21590
X12700Y-24130
X12700Y-26670
M30