G04 EAGLE Gerber RS-274X export*
G75*
%MOMM*%
%FSLAX34Y34*%
%LPD*%
%INTop Copper*%
%IPPOS*%
%AMOC8*
5,1,8,0,0,1.08239X$1,22.5*%
G01*
G04 Define Apertures*
%ADD10C,1.308000*%
%ADD11R,1.308000X1.308000*%
%ADD12C,1.108000*%
%ADD13R,1.108000X1.108000*%
%ADD14C,1.348000*%
%ADD15C,1.524000*%
%ADD16C,0.609600*%
%ADD17C,0.508000*%
G36*
X1245834Y10281D02*
X1245240Y10160D01*
X-26590Y10160D01*
X-27118Y10254D01*
X-27634Y10574D01*
X-27984Y11069D01*
X-28114Y11661D01*
X-40463Y835893D01*
X-40361Y836465D01*
X-40034Y836976D01*
X-39534Y837319D01*
X-38940Y837440D01*
X1232890Y837440D01*
X1233418Y837346D01*
X1233934Y837026D01*
X1234284Y836531D01*
X1234414Y835939D01*
X1246763Y11707D01*
X1246661Y11135D01*
X1246334Y10624D01*
X1245834Y10281D01*
G37*
%LPC*%
G36*
X1164956Y748540D02*
X1171844Y748540D01*
X1178497Y750323D01*
X1184463Y753767D01*
X1189333Y758637D01*
X1192777Y764603D01*
X1194560Y771256D01*
X1194560Y778144D01*
X1192777Y784797D01*
X1189333Y790763D01*
X1184463Y795633D01*
X1178497Y799077D01*
X1171844Y800860D01*
X1164956Y800860D01*
X1158303Y799077D01*
X1152337Y795633D01*
X1147467Y790763D01*
X1144023Y784797D01*
X1142240Y778144D01*
X1142240Y771256D01*
X1144023Y764603D01*
X1147467Y758637D01*
X1152337Y753767D01*
X1158303Y750323D01*
X1164956Y748540D01*
G37*
G36*
X21956Y748540D02*
X28844Y748540D01*
X35497Y750323D01*
X41463Y753767D01*
X46333Y758637D01*
X49777Y764603D01*
X51560Y771256D01*
X51560Y778144D01*
X49777Y784797D01*
X46333Y790763D01*
X41463Y795633D01*
X35497Y799077D01*
X28844Y800860D01*
X21956Y800860D01*
X15303Y799077D01*
X9337Y795633D01*
X4467Y790763D01*
X1023Y784797D01*
X-760Y778144D01*
X-760Y771256D01*
X1023Y764603D01*
X4467Y758637D01*
X9337Y753767D01*
X15303Y750323D01*
X21956Y748540D01*
G37*
G36*
X1114529Y317612D02*
X1118343Y317612D01*
X1121867Y319072D01*
X1123961Y321166D01*
X1124444Y321491D01*
X1125039Y321612D01*
X1155647Y321612D01*
X1157701Y322463D01*
X1173137Y337899D01*
X1173988Y339953D01*
X1173988Y547211D01*
X1173137Y549265D01*
X1151261Y571141D01*
X1149207Y571992D01*
X1124467Y571992D01*
X1123940Y572086D01*
X1123424Y572405D01*
X1123073Y572899D01*
X1122943Y573492D01*
X1123054Y574088D01*
X1123389Y574594D01*
X1124564Y575769D01*
X1126024Y579293D01*
X1126024Y583107D01*
X1124564Y586631D01*
X1121867Y589328D01*
X1118343Y590788D01*
X1114529Y590788D01*
X1111005Y589328D01*
X1108308Y586631D01*
X1106848Y583107D01*
X1106848Y581134D01*
X1106754Y580607D01*
X1106435Y580091D01*
X1105941Y579740D01*
X1105348Y579610D01*
X1104752Y579721D01*
X1104246Y580056D01*
X1098234Y586068D01*
X1097909Y586551D01*
X1097788Y587146D01*
X1097788Y712311D01*
X1096937Y714365D01*
X1069965Y741337D01*
X1067911Y742188D01*
X469209Y742188D01*
X467155Y741337D01*
X453159Y727341D01*
X453078Y727145D01*
X452781Y726685D01*
X452286Y726334D01*
X451694Y726204D01*
X451098Y726315D01*
X450592Y726650D01*
X450242Y727000D01*
X449917Y727483D01*
X449796Y728078D01*
X449796Y745344D01*
X449907Y745916D01*
X450242Y746421D01*
X459279Y755458D01*
X459762Y755783D01*
X460356Y755904D01*
X1089044Y755904D01*
X1089616Y755793D01*
X1090121Y755458D01*
X1109894Y735685D01*
X1110219Y735202D01*
X1110340Y734608D01*
X1110340Y640095D01*
X1110229Y639523D01*
X1109894Y639017D01*
X1108308Y637431D01*
X1106848Y633907D01*
X1106848Y630093D01*
X1108308Y626569D01*
X1111005Y623872D01*
X1114529Y622412D01*
X1118343Y622412D01*
X1121867Y623872D01*
X1124564Y626569D01*
X1126024Y630093D01*
X1126024Y633907D01*
X1124564Y637431D01*
X1122978Y639017D01*
X1122653Y639500D01*
X1122532Y640095D01*
X1122532Y738977D01*
X1121604Y741217D01*
X1095653Y767168D01*
X1093413Y768096D01*
X294287Y768096D01*
X292047Y767168D01*
X273432Y748553D01*
X272504Y746313D01*
X272504Y728078D01*
X272393Y727506D01*
X272058Y727000D01*
X270302Y725244D01*
X268812Y721647D01*
X268812Y717753D01*
X270302Y714156D01*
X273056Y711402D01*
X276653Y709912D01*
X280547Y709912D01*
X284144Y711402D01*
X286898Y714156D01*
X288388Y717753D01*
X288388Y721647D01*
X286898Y725244D01*
X285142Y727000D01*
X284817Y727483D01*
X284696Y728078D01*
X284696Y741944D01*
X284807Y742516D01*
X285142Y743021D01*
X297579Y755458D01*
X298062Y755783D01*
X298656Y755904D01*
X438804Y755904D01*
X439330Y755810D01*
X439846Y755491D01*
X440197Y754997D01*
X440328Y754404D01*
X440216Y753808D01*
X439881Y753302D01*
X438532Y751953D01*
X437604Y749713D01*
X437604Y728078D01*
X437493Y727506D01*
X437158Y727000D01*
X435402Y725244D01*
X433912Y721647D01*
X433912Y717753D01*
X435402Y714156D01*
X438156Y711402D01*
X441753Y709912D01*
X445647Y709912D01*
X449244Y711402D01*
X449706Y711864D01*
X450145Y712170D01*
X450735Y712310D01*
X451333Y712208D01*
X451844Y711881D01*
X452187Y711381D01*
X452308Y710786D01*
X452308Y708863D01*
X452197Y708291D01*
X451862Y707785D01*
X448611Y704534D01*
X448128Y704209D01*
X447533Y704088D01*
X434746Y704088D01*
X434174Y704199D01*
X433668Y704534D01*
X426600Y711603D01*
X426284Y712063D01*
X426154Y712656D01*
X426265Y713252D01*
X426600Y713758D01*
X426998Y714156D01*
X428488Y717753D01*
X428488Y721647D01*
X426998Y725244D01*
X424244Y727998D01*
X420647Y729488D01*
X416753Y729488D01*
X413156Y727998D01*
X410402Y725244D01*
X408912Y721647D01*
X408912Y717753D01*
X410402Y714156D01*
X413066Y711492D01*
X413391Y711009D01*
X413512Y710414D01*
X413512Y710089D01*
X414363Y708035D01*
X428408Y693990D01*
X428714Y693551D01*
X428853Y692961D01*
X428752Y692363D01*
X428425Y691852D01*
X427925Y691509D01*
X427330Y691388D01*
X340446Y691388D01*
X339874Y691499D01*
X339368Y691834D01*
X313834Y717368D01*
X313509Y717851D01*
X313388Y718446D01*
X313388Y721647D01*
X311898Y725244D01*
X309144Y727998D01*
X305547Y729488D01*
X301653Y729488D01*
X298056Y727998D01*
X295302Y725244D01*
X293812Y721647D01*
X293812Y717753D01*
X295302Y714156D01*
X298056Y711402D01*
X301653Y709912D01*
X304854Y709912D01*
X305426Y709801D01*
X305932Y709466D01*
X334108Y681290D01*
X334414Y680851D01*
X334553Y680261D01*
X334452Y679663D01*
X334125Y679152D01*
X333625Y678809D01*
X333030Y678688D01*
X282346Y678688D01*
X281774Y678799D01*
X281268Y679134D01*
X260034Y700368D01*
X259709Y700851D01*
X259588Y701446D01*
X259588Y711214D01*
X259699Y711786D01*
X260034Y712292D01*
X261898Y714156D01*
X263388Y717753D01*
X263388Y721647D01*
X261898Y725244D01*
X259144Y727998D01*
X255547Y729488D01*
X251653Y729488D01*
X248056Y727998D01*
X245302Y725244D01*
X243812Y721647D01*
X243812Y717753D01*
X245302Y714156D01*
X247966Y711492D01*
X248291Y711009D01*
X248412Y710414D01*
X248412Y697389D01*
X249263Y695335D01*
X276235Y668363D01*
X278289Y667512D01*
X987654Y667512D01*
X988226Y667401D01*
X988732Y667066D01*
X1009966Y645832D01*
X1010291Y645349D01*
X1010412Y644754D01*
X1010412Y519589D01*
X1011263Y517535D01*
X1086166Y442632D01*
X1086491Y442149D01*
X1086612Y441554D01*
X1086612Y417989D01*
X1087463Y415935D01*
X1104735Y398663D01*
X1106789Y397812D01*
X1107833Y397812D01*
X1108405Y397701D01*
X1108911Y397366D01*
X1111005Y395272D01*
X1114529Y393812D01*
X1118343Y393812D01*
X1121511Y395124D01*
X1122022Y395238D01*
X1122621Y395146D01*
X1123137Y394828D01*
X1123488Y394333D01*
X1123618Y393741D01*
X1123507Y393144D01*
X1123172Y392639D01*
X1118568Y388034D01*
X1118085Y387709D01*
X1117490Y387588D01*
X1114529Y387588D01*
X1111005Y386128D01*
X1108308Y383431D01*
X1106848Y379907D01*
X1106848Y376093D01*
X1108308Y372569D01*
X1111005Y369872D01*
X1114529Y368412D01*
X1118343Y368412D01*
X1121867Y369872D01*
X1124564Y372569D01*
X1126024Y376093D01*
X1126024Y379054D01*
X1126135Y379626D01*
X1126470Y380132D01*
X1135037Y388699D01*
X1135888Y390753D01*
X1135888Y456444D01*
X1135037Y458498D01*
X1123994Y469541D01*
X1123232Y469857D01*
X1122773Y470153D01*
X1122422Y470648D01*
X1122292Y471240D01*
X1122403Y471837D01*
X1122738Y472342D01*
X1124564Y474169D01*
X1126024Y477693D01*
X1126024Y481507D01*
X1124564Y485031D01*
X1121867Y487728D01*
X1118343Y489188D01*
X1114529Y489188D01*
X1111005Y487728D01*
X1108308Y485031D01*
X1106848Y481507D01*
X1106848Y477693D01*
X1108308Y474169D01*
X1109483Y472994D01*
X1109789Y472555D01*
X1109928Y471965D01*
X1109827Y471367D01*
X1109500Y470856D01*
X1109000Y470513D01*
X1108405Y470392D01*
X1100242Y470392D01*
X1099670Y470503D01*
X1099164Y470838D01*
X1034734Y535268D01*
X1034409Y535751D01*
X1034288Y536346D01*
X1034288Y661511D01*
X1033437Y663565D01*
X1006465Y690537D01*
X1004411Y691388D01*
X454949Y691388D01*
X454422Y691482D01*
X453906Y691801D01*
X453555Y692295D01*
X453425Y692888D01*
X453536Y693484D01*
X453871Y693990D01*
X462633Y702751D01*
X463484Y704805D01*
X463484Y708985D01*
X463582Y709523D01*
X463905Y710037D01*
X464402Y710384D01*
X464996Y710509D01*
X465591Y710393D01*
X466753Y709912D01*
X470647Y709912D01*
X474244Y711402D01*
X476998Y714156D01*
X478330Y717371D01*
X478643Y717848D01*
X479143Y718191D01*
X479738Y718312D01*
X1051154Y718312D01*
X1051726Y718201D01*
X1052232Y717866D01*
X1073466Y696632D01*
X1073791Y696149D01*
X1073912Y695554D01*
X1073912Y570389D01*
X1074763Y568335D01*
X1106831Y536267D01*
X1106837Y536264D01*
X1107306Y535959D01*
X1107653Y535462D01*
X1107778Y534868D01*
X1107662Y534273D01*
X1106848Y532307D01*
X1106848Y528493D01*
X1108308Y524969D01*
X1111005Y522272D01*
X1114529Y520812D01*
X1118343Y520812D01*
X1121867Y522272D01*
X1124564Y524969D01*
X1126024Y528493D01*
X1126024Y532307D01*
X1125609Y533309D01*
X1125494Y533843D01*
X1125596Y534441D01*
X1125922Y534952D01*
X1126423Y535295D01*
X1127017Y535416D01*
X1143283Y535416D01*
X1143854Y535305D01*
X1144360Y534970D01*
X1149666Y529664D01*
X1149991Y529181D01*
X1150112Y528587D01*
X1150112Y371246D01*
X1150001Y370674D01*
X1149666Y370168D01*
X1138132Y358634D01*
X1137649Y358309D01*
X1137054Y358188D01*
X1125039Y358188D01*
X1124467Y358299D01*
X1123961Y358634D01*
X1121867Y360728D01*
X1118343Y362188D01*
X1114529Y362188D01*
X1111005Y360728D01*
X1108308Y358031D01*
X1106848Y354507D01*
X1106848Y350693D01*
X1108308Y347169D01*
X1111005Y344472D01*
X1114529Y343012D01*
X1118343Y343012D01*
X1121867Y344472D01*
X1123961Y346566D01*
X1124444Y346891D01*
X1125039Y347012D01*
X1141111Y347012D01*
X1143165Y347863D01*
X1160210Y364908D01*
X1160649Y365214D01*
X1161239Y365353D01*
X1161837Y365252D01*
X1162348Y364925D01*
X1162691Y364425D01*
X1162812Y363830D01*
X1162812Y344010D01*
X1162701Y343438D01*
X1162366Y342932D01*
X1152668Y333234D01*
X1152185Y332909D01*
X1151590Y332788D01*
X1125039Y332788D01*
X1124467Y332899D01*
X1123961Y333234D01*
X1121867Y335328D01*
X1118343Y336788D01*
X1114529Y336788D01*
X1111005Y335328D01*
X1108308Y332631D01*
X1106848Y329107D01*
X1106848Y325293D01*
X1108308Y321769D01*
X1111005Y319072D01*
X1114529Y317612D01*
G37*
G36*
X398780Y724780D02*
X401640Y724780D01*
X401567Y724957D01*
X398957Y727567D01*
X398780Y727640D01*
X398780Y724780D01*
G37*
G36*
X220660Y724780D02*
X223520Y724780D01*
X223520Y727640D01*
X223343Y727567D01*
X220733Y724957D01*
X220660Y724780D01*
G37*
G36*
X233680Y724780D02*
X236540Y724780D01*
X236467Y724957D01*
X233857Y727567D01*
X233680Y727640D01*
X233680Y724780D01*
G37*
G36*
X385760Y724780D02*
X388620Y724780D01*
X388620Y727640D01*
X388443Y727567D01*
X385833Y724957D01*
X385760Y724780D01*
G37*
G36*
X223343Y711833D02*
X223520Y711760D01*
X223520Y714620D01*
X220660Y714620D01*
X220733Y714443D01*
X223343Y711833D01*
G37*
G36*
X398780Y714620D02*
X398780Y711760D01*
X398957Y711833D01*
X401567Y714443D01*
X401640Y714620D01*
X398780Y714620D01*
G37*
G36*
X388443Y711833D02*
X388620Y711760D01*
X388620Y714620D01*
X385760Y714620D01*
X385833Y714443D01*
X388443Y711833D01*
G37*
G36*
X233680Y714620D02*
X233680Y711760D01*
X233857Y711833D01*
X236467Y714443D01*
X236540Y714620D01*
X233680Y714620D01*
G37*
G36*
X760487Y640080D02*
X771920Y640080D01*
X771920Y645160D01*
X767359Y645160D01*
X763625Y643613D01*
X760767Y640755D01*
X760487Y640080D01*
G37*
G36*
X782080Y640080D02*
X793513Y640080D01*
X793233Y640755D01*
X790375Y643613D01*
X786641Y645160D01*
X782080Y645160D01*
X782080Y640080D01*
G37*
G36*
X885929Y622412D02*
X889743Y622412D01*
X893267Y623872D01*
X895964Y626569D01*
X897424Y630093D01*
X897424Y633907D01*
X895964Y637431D01*
X893267Y640128D01*
X889743Y641588D01*
X885929Y641588D01*
X882405Y640128D01*
X879708Y637431D01*
X878248Y633907D01*
X878248Y630093D01*
X879708Y626569D01*
X882405Y623872D01*
X885929Y622412D01*
G37*
G36*
X179675Y622316D02*
X183490Y622316D01*
X187014Y623776D01*
X189711Y626473D01*
X191170Y629997D01*
X191170Y633811D01*
X189711Y637335D01*
X187014Y640032D01*
X183490Y641492D01*
X179675Y641492D01*
X176151Y640032D01*
X173454Y637335D01*
X171994Y633811D01*
X171994Y629997D01*
X173454Y626473D01*
X176151Y623776D01*
X179675Y622316D01*
G37*
G36*
X687675Y622316D02*
X691490Y622316D01*
X695014Y623776D01*
X697711Y626473D01*
X699170Y629997D01*
X699170Y633811D01*
X697711Y637335D01*
X695014Y640032D01*
X691490Y641492D01*
X687675Y641492D01*
X684151Y640032D01*
X681454Y637335D01*
X679994Y633811D01*
X679994Y629997D01*
X681454Y626473D01*
X684151Y623776D01*
X687675Y622316D01*
G37*
G36*
X52675Y622316D02*
X56490Y622316D01*
X60014Y623776D01*
X62711Y626473D01*
X64170Y629997D01*
X64170Y633811D01*
X62711Y637335D01*
X60014Y640032D01*
X56490Y641492D01*
X52675Y641492D01*
X49151Y640032D01*
X46454Y637335D01*
X44994Y633811D01*
X44994Y629997D01*
X46454Y626473D01*
X49151Y623776D01*
X52675Y622316D01*
G37*
G36*
X78075Y622316D02*
X81890Y622316D01*
X85414Y623776D01*
X88111Y626473D01*
X89570Y629997D01*
X89570Y633811D01*
X88111Y637335D01*
X85414Y640032D01*
X81890Y641492D01*
X78075Y641492D01*
X74551Y640032D01*
X71854Y637335D01*
X70394Y633811D01*
X70394Y629997D01*
X71854Y626473D01*
X74551Y623776D01*
X78075Y622316D01*
G37*
G36*
X103475Y622316D02*
X107290Y622316D01*
X110814Y623776D01*
X113511Y626473D01*
X114970Y629997D01*
X114970Y633811D01*
X113511Y637335D01*
X110814Y640032D01*
X107290Y641492D01*
X103475Y641492D01*
X99951Y640032D01*
X97254Y637335D01*
X95794Y633811D01*
X95794Y629997D01*
X97254Y626473D01*
X99951Y623776D01*
X103475Y622316D01*
G37*
G36*
X128875Y622316D02*
X132690Y622316D01*
X136214Y623776D01*
X138911Y626473D01*
X140370Y629997D01*
X140370Y633811D01*
X138911Y637335D01*
X136214Y640032D01*
X132690Y641492D01*
X128875Y641492D01*
X125351Y640032D01*
X122654Y637335D01*
X121194Y633811D01*
X121194Y629997D01*
X122654Y626473D01*
X125351Y623776D01*
X128875Y622316D01*
G37*
G36*
X154275Y622316D02*
X158090Y622316D01*
X161614Y623776D01*
X164311Y626473D01*
X165770Y629997D01*
X165770Y633811D01*
X164311Y637335D01*
X161614Y640032D01*
X158090Y641492D01*
X154275Y641492D01*
X150751Y640032D01*
X148054Y637335D01*
X146594Y633811D01*
X146594Y629997D01*
X148054Y626473D01*
X150751Y623776D01*
X154275Y622316D01*
G37*
G36*
X332075Y622316D02*
X335890Y622316D01*
X339414Y623776D01*
X342111Y626473D01*
X343570Y629997D01*
X343570Y633811D01*
X342111Y637335D01*
X339414Y640032D01*
X335890Y641492D01*
X332075Y641492D01*
X328551Y640032D01*
X325854Y637335D01*
X324394Y633811D01*
X324394Y629997D01*
X325854Y626473D01*
X328551Y623776D01*
X332075Y622316D01*
G37*
G36*
X306675Y622316D02*
X310490Y622316D01*
X314014Y623776D01*
X316711Y626473D01*
X318170Y629997D01*
X318170Y633811D01*
X316711Y637335D01*
X314014Y640032D01*
X310490Y641492D01*
X306675Y641492D01*
X303151Y640032D01*
X300454Y637335D01*
X298994Y633811D01*
X298994Y629997D01*
X300454Y626473D01*
X303151Y623776D01*
X306675Y622316D01*
G37*
G36*
X275380Y622316D02*
X290985Y622316D01*
X292770Y624101D01*
X292770Y639707D01*
X290985Y641492D01*
X275380Y641492D01*
X273594Y639707D01*
X273594Y624101D01*
X275380Y622316D01*
G37*
G36*
X249980Y622316D02*
X265585Y622316D01*
X267370Y624101D01*
X267370Y639707D01*
X265585Y641492D01*
X249980Y641492D01*
X248194Y639707D01*
X248194Y624101D01*
X249980Y622316D01*
G37*
G36*
X230475Y622316D02*
X234290Y622316D01*
X237814Y623776D01*
X240511Y626473D01*
X241970Y629997D01*
X241970Y633811D01*
X240511Y637335D01*
X237814Y640032D01*
X234290Y641492D01*
X230475Y641492D01*
X226951Y640032D01*
X224254Y637335D01*
X222794Y633811D01*
X222794Y629997D01*
X224254Y626473D01*
X226951Y623776D01*
X230475Y622316D01*
G37*
G36*
X408275Y622316D02*
X412090Y622316D01*
X415614Y623776D01*
X418311Y626473D01*
X419770Y629997D01*
X419770Y633811D01*
X418311Y637335D01*
X415614Y640032D01*
X412090Y641492D01*
X408275Y641492D01*
X404751Y640032D01*
X402054Y637335D01*
X400594Y633811D01*
X400594Y629997D01*
X402054Y626473D01*
X404751Y623776D01*
X408275Y622316D01*
G37*
G36*
X382875Y622316D02*
X386690Y622316D01*
X390214Y623776D01*
X392911Y626473D01*
X394370Y629997D01*
X394370Y633811D01*
X392911Y637335D01*
X390214Y640032D01*
X386690Y641492D01*
X382875Y641492D01*
X379351Y640032D01*
X376654Y637335D01*
X375194Y633811D01*
X375194Y629997D01*
X376654Y626473D01*
X379351Y623776D01*
X382875Y622316D01*
G37*
G36*
X357475Y622316D02*
X361290Y622316D01*
X364814Y623776D01*
X367511Y626473D01*
X368970Y629997D01*
X368970Y633811D01*
X367511Y637335D01*
X364814Y640032D01*
X361290Y641492D01*
X357475Y641492D01*
X353951Y640032D01*
X351254Y637335D01*
X349794Y633811D01*
X349794Y629997D01*
X351254Y626473D01*
X353951Y623776D01*
X357475Y622316D01*
G37*
G36*
X584670Y581344D02*
X591295Y581344D01*
X597694Y583059D01*
X603431Y586371D01*
X608115Y591055D01*
X611428Y596793D01*
X613142Y603192D01*
X613142Y609816D01*
X611428Y616215D01*
X608115Y621953D01*
X603431Y626637D01*
X597694Y629949D01*
X591295Y631664D01*
X584670Y631664D01*
X578271Y629949D01*
X572534Y626637D01*
X567849Y621953D01*
X564537Y616215D01*
X562822Y609816D01*
X562822Y603192D01*
X564537Y596793D01*
X567849Y591055D01*
X572534Y586371D01*
X578271Y583059D01*
X584670Y581344D01*
G37*
G36*
X767359Y624840D02*
X786641Y624840D01*
X790375Y626387D01*
X793233Y629245D01*
X793513Y629920D01*
X760487Y629920D01*
X760767Y629245D01*
X763625Y626387D01*
X767359Y624840D01*
G37*
G36*
X767258Y598932D02*
X786742Y598932D01*
X790663Y600556D01*
X793664Y603557D01*
X795288Y607478D01*
X795288Y611722D01*
X793664Y615643D01*
X790663Y618644D01*
X786742Y620268D01*
X767258Y620268D01*
X763337Y618644D01*
X760336Y615643D01*
X758712Y611722D01*
X758712Y607478D01*
X760336Y603557D01*
X763337Y600556D01*
X767258Y598932D01*
G37*
G36*
X1114529Y597012D02*
X1118343Y597012D01*
X1121867Y598472D01*
X1124564Y601169D01*
X1126024Y604693D01*
X1126024Y608507D01*
X1124564Y612031D01*
X1121867Y614728D01*
X1118343Y616188D01*
X1114529Y616188D01*
X1111005Y614728D01*
X1108308Y612031D01*
X1106848Y608507D01*
X1106848Y604693D01*
X1108308Y601169D01*
X1111005Y598472D01*
X1114529Y597012D01*
G37*
G36*
X885929Y597012D02*
X889743Y597012D01*
X893267Y598472D01*
X895964Y601169D01*
X897424Y604693D01*
X897424Y608507D01*
X895964Y612031D01*
X893267Y614728D01*
X889743Y616188D01*
X885929Y616188D01*
X882405Y614728D01*
X879708Y612031D01*
X878248Y608507D01*
X878248Y604693D01*
X879708Y601169D01*
X882405Y598472D01*
X885929Y597012D01*
G37*
G36*
X687675Y596916D02*
X691490Y596916D01*
X695014Y598376D01*
X697711Y601073D01*
X699170Y604597D01*
X699170Y608411D01*
X697711Y611935D01*
X695014Y614632D01*
X691490Y616092D01*
X687675Y616092D01*
X684151Y614632D01*
X681454Y611935D01*
X679994Y608411D01*
X679994Y604597D01*
X681454Y601073D01*
X684151Y598376D01*
X687675Y596916D01*
G37*
G36*
X1114529Y165212D02*
X1118343Y165212D01*
X1121867Y166672D01*
X1124564Y169369D01*
X1126024Y172893D01*
X1126024Y176707D01*
X1124564Y180231D01*
X1121867Y182928D01*
X1118343Y184388D01*
X1115382Y184388D01*
X1114810Y184499D01*
X1114304Y184834D01*
X1109700Y189439D01*
X1109399Y189866D01*
X1109255Y190456D01*
X1109352Y191054D01*
X1109675Y191568D01*
X1110172Y191915D01*
X1110766Y192040D01*
X1111361Y191924D01*
X1114529Y190612D01*
X1118343Y190612D01*
X1121867Y192072D01*
X1124564Y194769D01*
X1126024Y198293D01*
X1126024Y202107D01*
X1124564Y205631D01*
X1121867Y208328D01*
X1118343Y209788D01*
X1114529Y209788D01*
X1111005Y208328D01*
X1108308Y205631D01*
X1106848Y202107D01*
X1106848Y198293D01*
X1108160Y195125D01*
X1108274Y194615D01*
X1108182Y194015D01*
X1107864Y193499D01*
X1107369Y193148D01*
X1106777Y193018D01*
X1106180Y193129D01*
X1105675Y193464D01*
X1091610Y207529D01*
X1091284Y208012D01*
X1091163Y208607D01*
X1091163Y374169D01*
X1090312Y376223D01*
X894443Y572092D01*
X894127Y572553D01*
X893997Y573146D01*
X894108Y573742D01*
X894443Y574247D01*
X895964Y575769D01*
X897424Y579293D01*
X897424Y583107D01*
X895964Y586631D01*
X893267Y589328D01*
X889743Y590788D01*
X885929Y590788D01*
X882405Y589328D01*
X879708Y586631D01*
X878248Y583107D01*
X878248Y579293D01*
X879197Y577002D01*
X879312Y576467D01*
X879211Y575869D01*
X878884Y575358D01*
X878383Y575015D01*
X877789Y574895D01*
X802459Y574895D01*
X801887Y575006D01*
X801382Y575341D01*
X795734Y580988D01*
X795409Y581471D01*
X795288Y582066D01*
X795288Y586322D01*
X793664Y590243D01*
X790663Y593244D01*
X786742Y594868D01*
X767258Y594868D01*
X763337Y593244D01*
X760336Y590243D01*
X758712Y586322D01*
X758712Y582078D01*
X760336Y578157D01*
X763337Y575156D01*
X767258Y573532D01*
X786754Y573532D01*
X787326Y573421D01*
X787832Y573086D01*
X789360Y571557D01*
X789661Y571129D01*
X789806Y570540D01*
X789709Y569941D01*
X789386Y569428D01*
X788888Y569081D01*
X788295Y568955D01*
X787700Y569071D01*
X786742Y569468D01*
X767258Y569468D01*
X763337Y567844D01*
X760336Y564843D01*
X758712Y560922D01*
X758712Y556678D01*
X760336Y552757D01*
X763337Y549756D01*
X767258Y548132D01*
X786742Y548132D01*
X790663Y549756D01*
X793664Y552757D01*
X795288Y556678D01*
X795288Y560922D01*
X794653Y562456D01*
X794538Y562978D01*
X794635Y563577D01*
X794958Y564090D01*
X795455Y564437D01*
X796049Y564563D01*
X796644Y564447D01*
X798402Y563719D01*
X878516Y563719D01*
X879042Y563625D01*
X879558Y563306D01*
X879909Y562811D01*
X880040Y562219D01*
X879928Y561623D01*
X879772Y561387D01*
X878248Y557707D01*
X878248Y553893D01*
X879708Y550369D01*
X882405Y547672D01*
X885929Y546212D01*
X889743Y546212D01*
X893267Y547672D01*
X895964Y550369D01*
X896379Y551371D01*
X896676Y551830D01*
X897171Y552181D01*
X897763Y552311D01*
X898359Y552200D01*
X898865Y551865D01*
X1079541Y371189D01*
X1079866Y370706D01*
X1079987Y370111D01*
X1079987Y204549D01*
X1080838Y202496D01*
X1106402Y176932D01*
X1106727Y176449D01*
X1106848Y175854D01*
X1106848Y172893D01*
X1108308Y169369D01*
X1111005Y166672D01*
X1114529Y165212D01*
G37*
G36*
X687675Y571516D02*
X691490Y571516D01*
X695014Y572976D01*
X697711Y575673D01*
X699170Y579197D01*
X699170Y583011D01*
X697711Y586535D01*
X695014Y589232D01*
X691490Y590692D01*
X687675Y590692D01*
X684151Y589232D01*
X681454Y586535D01*
X679994Y583011D01*
X679994Y579197D01*
X681454Y575673D01*
X684151Y572976D01*
X687675Y571516D01*
G37*
G36*
X687675Y546116D02*
X691490Y546116D01*
X695014Y547576D01*
X697711Y550273D01*
X699170Y553797D01*
X699170Y557611D01*
X697711Y561135D01*
X695014Y563832D01*
X691490Y565292D01*
X687675Y565292D01*
X684151Y563832D01*
X681454Y561135D01*
X679994Y557611D01*
X679994Y553797D01*
X681454Y550273D01*
X684151Y547576D01*
X687675Y546116D01*
G37*
G36*
X885929Y343012D02*
X889743Y343012D01*
X893267Y344472D01*
X895361Y346566D01*
X895844Y346891D01*
X896439Y347012D01*
X912511Y347012D01*
X914565Y347863D01*
X931837Y365135D01*
X932688Y367189D01*
X932688Y431044D01*
X931837Y433098D01*
X895394Y469541D01*
X894632Y469857D01*
X894173Y470153D01*
X893822Y470648D01*
X893692Y471240D01*
X893803Y471837D01*
X894138Y472342D01*
X895964Y474169D01*
X897424Y477693D01*
X897424Y481507D01*
X895964Y485031D01*
X893267Y487728D01*
X889743Y489188D01*
X885929Y489188D01*
X882405Y487728D01*
X879708Y485031D01*
X878248Y481507D01*
X878248Y477693D01*
X879708Y474169D01*
X880883Y472994D01*
X881189Y472555D01*
X881328Y471965D01*
X881227Y471367D01*
X880900Y470856D01*
X880400Y470513D01*
X879805Y470392D01*
X858942Y470392D01*
X858370Y470503D01*
X857864Y470838D01*
X795734Y532968D01*
X795409Y533451D01*
X795288Y534046D01*
X795288Y535522D01*
X793664Y539443D01*
X790663Y542444D01*
X786742Y544068D01*
X767258Y544068D01*
X763337Y542444D01*
X760336Y539443D01*
X758712Y535522D01*
X758712Y531278D01*
X760336Y527357D01*
X763337Y524356D01*
X767258Y522732D01*
X786742Y522732D01*
X788222Y523345D01*
X788781Y523461D01*
X789377Y523350D01*
X789883Y523015D01*
X852831Y460067D01*
X854885Y459216D01*
X877255Y459216D01*
X877793Y459118D01*
X878306Y458795D01*
X878653Y458298D01*
X878779Y457704D01*
X878663Y457109D01*
X878248Y456107D01*
X878248Y452293D01*
X879708Y448769D01*
X882405Y446072D01*
X885929Y444612D01*
X889743Y444612D01*
X893267Y446072D01*
X895964Y448769D01*
X896379Y449771D01*
X896676Y450230D01*
X897171Y450581D01*
X897763Y450711D01*
X898359Y450600D01*
X898865Y450265D01*
X921066Y428064D01*
X921391Y427581D01*
X921512Y426987D01*
X921512Y371246D01*
X921401Y370674D01*
X921066Y370168D01*
X909532Y358634D01*
X909049Y358309D01*
X908454Y358188D01*
X907302Y358188D01*
X906776Y358282D01*
X906260Y358601D01*
X905909Y359095D01*
X905778Y359688D01*
X905890Y360284D01*
X906225Y360790D01*
X915877Y370442D01*
X916728Y372496D01*
X916728Y406607D01*
X915877Y408661D01*
X897870Y426668D01*
X897545Y427151D01*
X897424Y427746D01*
X897424Y430707D01*
X895964Y434231D01*
X893267Y436928D01*
X889743Y438388D01*
X885929Y438388D01*
X882405Y436928D01*
X879708Y434231D01*
X878248Y430707D01*
X878248Y426893D01*
X879708Y423369D01*
X882405Y420672D01*
X885929Y419212D01*
X888890Y419212D01*
X889462Y419101D01*
X889968Y418766D01*
X894572Y414161D01*
X894873Y413734D01*
X895017Y413145D01*
X894920Y412546D01*
X894597Y412032D01*
X894100Y411685D01*
X893507Y411560D01*
X892911Y411676D01*
X889743Y412988D01*
X885929Y412988D01*
X882405Y411528D01*
X879708Y408831D01*
X878248Y405307D01*
X878248Y401493D01*
X879560Y398325D01*
X879674Y397815D01*
X879582Y397215D01*
X879264Y396699D01*
X878769Y396348D01*
X878177Y396218D01*
X877580Y396329D01*
X877075Y396664D01*
X869056Y404683D01*
X868730Y405166D01*
X868609Y405761D01*
X868609Y430710D01*
X867759Y432764D01*
X795734Y504788D01*
X795409Y505271D01*
X795288Y505866D01*
X795288Y510122D01*
X793664Y514043D01*
X790663Y517044D01*
X786742Y518668D01*
X767258Y518668D01*
X763337Y517044D01*
X760336Y514043D01*
X758712Y510122D01*
X758712Y505878D01*
X760336Y501957D01*
X763337Y498956D01*
X767258Y497332D01*
X786754Y497332D01*
X787326Y497221D01*
X787832Y496886D01*
X789360Y495357D01*
X789661Y494929D01*
X789806Y494340D01*
X789709Y493741D01*
X789386Y493228D01*
X788888Y492881D01*
X788295Y492755D01*
X787700Y492871D01*
X786742Y493268D01*
X767258Y493268D01*
X763337Y491644D01*
X760336Y488643D01*
X758712Y484722D01*
X758712Y480478D01*
X760336Y476557D01*
X763337Y473556D01*
X767258Y471932D01*
X786900Y471932D01*
X787143Y471982D01*
X787739Y471871D01*
X788245Y471536D01*
X790151Y469629D01*
X790452Y469202D01*
X790596Y468613D01*
X790499Y468014D01*
X790177Y467500D01*
X789679Y467153D01*
X789086Y467028D01*
X788490Y467144D01*
X786742Y467868D01*
X767258Y467868D01*
X763337Y466244D01*
X760336Y463243D01*
X758712Y459322D01*
X758712Y455078D01*
X760336Y451157D01*
X763337Y448156D01*
X767258Y446532D01*
X786742Y446532D01*
X790663Y448156D01*
X793664Y451157D01*
X795288Y455078D01*
X795288Y459322D01*
X794564Y461070D01*
X794450Y461581D01*
X794542Y462180D01*
X794860Y462696D01*
X795355Y463047D01*
X795948Y463177D01*
X796544Y463066D01*
X797049Y462731D01*
X837683Y422098D01*
X838009Y421614D01*
X838129Y421020D01*
X838129Y393311D01*
X838980Y391257D01*
X871770Y358467D01*
X873824Y357616D01*
X877255Y357616D01*
X877793Y357518D01*
X878306Y357195D01*
X878653Y356698D01*
X878779Y356104D01*
X878663Y355509D01*
X878248Y354507D01*
X878248Y350693D01*
X879708Y347169D01*
X882405Y344472D01*
X885929Y343012D01*
G37*
G36*
X885929Y520812D02*
X889743Y520812D01*
X893267Y522272D01*
X895964Y524969D01*
X897424Y528493D01*
X897424Y532307D01*
X895964Y535831D01*
X893267Y538528D01*
X889743Y539988D01*
X885929Y539988D01*
X882405Y538528D01*
X879708Y535831D01*
X878248Y532307D01*
X878248Y528493D01*
X879708Y524969D01*
X882405Y522272D01*
X885929Y520812D01*
G37*
G36*
X687675Y520716D02*
X691490Y520716D01*
X695014Y522176D01*
X697711Y524873D01*
X699170Y528397D01*
X699170Y532211D01*
X697711Y535735D01*
X695014Y538432D01*
X691490Y539892D01*
X687675Y539892D01*
X684151Y538432D01*
X681454Y535735D01*
X679994Y532211D01*
X679994Y528397D01*
X681454Y524873D01*
X684151Y522176D01*
X687675Y520716D01*
G37*
G36*
X885929Y495412D02*
X889743Y495412D01*
X893267Y496872D01*
X895964Y499569D01*
X897424Y503093D01*
X897424Y506907D01*
X895964Y510431D01*
X893267Y513128D01*
X889743Y514588D01*
X885929Y514588D01*
X882405Y513128D01*
X879708Y510431D01*
X878248Y506907D01*
X878248Y503093D01*
X879708Y499569D01*
X882405Y496872D01*
X885929Y495412D01*
G37*
G36*
X687675Y495316D02*
X691490Y495316D01*
X695014Y496776D01*
X697711Y499473D01*
X699170Y502997D01*
X699170Y506811D01*
X697711Y510335D01*
X695014Y513032D01*
X691490Y514492D01*
X687675Y514492D01*
X684151Y513032D01*
X681454Y510335D01*
X679994Y506811D01*
X679994Y502997D01*
X681454Y499473D01*
X684151Y496776D01*
X687675Y495316D01*
G37*
G36*
X52675Y495316D02*
X56490Y495316D01*
X60014Y496776D01*
X62711Y499473D01*
X64170Y502997D01*
X64170Y506811D01*
X62711Y510335D01*
X60014Y513032D01*
X56490Y514492D01*
X52675Y514492D01*
X49151Y513032D01*
X46454Y510335D01*
X44994Y506811D01*
X44994Y502997D01*
X46454Y499473D01*
X49151Y496776D01*
X52675Y495316D01*
G37*
G36*
X1121516Y510080D02*
X1124160Y510080D01*
X1124134Y510143D01*
X1121579Y512698D01*
X1121516Y512724D01*
X1121516Y510080D01*
G37*
G36*
X1108712Y510080D02*
X1111356Y510080D01*
X1111356Y512724D01*
X1111293Y512698D01*
X1108738Y510143D01*
X1108712Y510080D01*
G37*
G36*
X1111293Y497302D02*
X1111356Y497276D01*
X1111356Y499920D01*
X1108712Y499920D01*
X1108738Y499857D01*
X1111293Y497302D01*
G37*
G36*
X1121516Y499920D02*
X1121516Y497276D01*
X1121579Y497302D01*
X1124134Y499857D01*
X1124160Y499920D01*
X1121516Y499920D01*
G37*
G36*
X687675Y469916D02*
X691490Y469916D01*
X695014Y471376D01*
X697711Y474073D01*
X699170Y477597D01*
X699170Y481411D01*
X697711Y484935D01*
X695014Y487632D01*
X691490Y489092D01*
X687675Y489092D01*
X684151Y487632D01*
X681454Y484935D01*
X679994Y481411D01*
X679994Y477597D01*
X681454Y474073D01*
X684151Y471376D01*
X687675Y469916D01*
G37*
G36*
X687675Y444516D02*
X691490Y444516D01*
X695014Y445976D01*
X697711Y448673D01*
X699170Y452197D01*
X699170Y456011D01*
X697711Y459535D01*
X695014Y462232D01*
X691490Y463692D01*
X687675Y463692D01*
X684151Y462232D01*
X681454Y459535D01*
X679994Y456011D01*
X679994Y452197D01*
X681454Y448673D01*
X684151Y445976D01*
X687675Y444516D01*
G37*
G36*
X52675Y444516D02*
X56490Y444516D01*
X60014Y445976D01*
X62711Y448673D01*
X64170Y452197D01*
X64170Y456011D01*
X62711Y459535D01*
X60014Y462232D01*
X56490Y463692D01*
X52675Y463692D01*
X49151Y462232D01*
X46454Y459535D01*
X44994Y456011D01*
X44994Y452197D01*
X46454Y448673D01*
X49151Y445976D01*
X52675Y444516D01*
G37*
G36*
X767258Y421132D02*
X786742Y421132D01*
X790663Y422756D01*
X793664Y425757D01*
X795288Y429678D01*
X795288Y433922D01*
X793664Y437843D01*
X790663Y440844D01*
X786742Y442468D01*
X767258Y442468D01*
X763337Y440844D01*
X760336Y437843D01*
X758712Y433922D01*
X758712Y429678D01*
X760336Y425757D01*
X763337Y422756D01*
X767258Y421132D01*
G37*
G36*
X687675Y419116D02*
X691490Y419116D01*
X695014Y420576D01*
X697711Y423273D01*
X699170Y426797D01*
X699170Y430611D01*
X697711Y434135D01*
X695014Y436832D01*
X691490Y438292D01*
X687675Y438292D01*
X684151Y436832D01*
X681454Y434135D01*
X679994Y430611D01*
X679994Y426797D01*
X681454Y423273D01*
X684151Y420576D01*
X687675Y419116D01*
G37*
G36*
X885929Y190612D02*
X889743Y190612D01*
X893267Y192072D01*
X895964Y194769D01*
X897424Y198293D01*
X897424Y201254D01*
X897535Y201826D01*
X897870Y202332D01*
X915877Y220339D01*
X916728Y222393D01*
X916728Y307304D01*
X915877Y309358D01*
X905998Y319237D01*
X903944Y320088D01*
X896999Y320088D01*
X896461Y320186D01*
X895948Y320509D01*
X895601Y321006D01*
X895475Y321600D01*
X895576Y322120D01*
X883717Y322120D01*
X883439Y322348D01*
X882984Y322803D01*
X882756Y323081D01*
X882756Y334924D01*
X882693Y334898D01*
X880138Y332343D01*
X879682Y331241D01*
X879385Y330781D01*
X878890Y330430D01*
X878298Y330300D01*
X877702Y330411D01*
X877196Y330746D01*
X796805Y411137D01*
X794751Y411988D01*
X794750Y411988D01*
X794178Y412099D01*
X793672Y412434D01*
X790663Y415444D01*
X786742Y417068D01*
X767258Y417068D01*
X763337Y415444D01*
X760336Y412443D01*
X758712Y408522D01*
X758712Y404278D01*
X760336Y400357D01*
X763337Y397356D01*
X767258Y395732D01*
X786742Y395732D01*
X790663Y397356D01*
X791644Y398337D01*
X792105Y398653D01*
X792698Y398784D01*
X793294Y398672D01*
X793800Y398337D01*
X881229Y310908D01*
X881545Y310447D01*
X881675Y309855D01*
X881564Y309258D01*
X881229Y308753D01*
X880311Y307834D01*
X879828Y307509D01*
X879233Y307388D01*
X878082Y307388D01*
X877510Y307499D01*
X877004Y307834D01*
X824501Y360337D01*
X822447Y361188D01*
X794750Y361188D01*
X794178Y361299D01*
X793672Y361634D01*
X790663Y364644D01*
X786742Y366268D01*
X767258Y366268D01*
X766300Y365871D01*
X765790Y365757D01*
X765191Y365849D01*
X764675Y366168D01*
X764324Y366663D01*
X764193Y367255D01*
X764305Y367851D01*
X764640Y368357D01*
X766168Y369886D01*
X766651Y370211D01*
X767246Y370332D01*
X786742Y370332D01*
X790663Y371956D01*
X793664Y374957D01*
X795288Y378878D01*
X795288Y383122D01*
X793664Y387043D01*
X790663Y390044D01*
X786742Y391668D01*
X767258Y391668D01*
X763337Y390044D01*
X760336Y387043D01*
X758712Y383122D01*
X758712Y378866D01*
X758601Y378294D01*
X758266Y377788D01*
X752959Y372481D01*
X752108Y370427D01*
X752108Y324249D01*
X752959Y322195D01*
X854291Y220863D01*
X856345Y220012D01*
X879233Y220012D01*
X879805Y219901D01*
X880311Y219566D01*
X882405Y217472D01*
X885929Y216012D01*
X889743Y216012D01*
X892911Y217324D01*
X893422Y217438D01*
X894021Y217346D01*
X894537Y217028D01*
X894888Y216533D01*
X895018Y215941D01*
X894907Y215344D01*
X894572Y214839D01*
X889968Y210234D01*
X889485Y209909D01*
X888890Y209788D01*
X885929Y209788D01*
X882405Y208328D01*
X879708Y205631D01*
X878248Y202107D01*
X878248Y198293D01*
X879708Y194769D01*
X882405Y192072D01*
X885929Y190612D01*
G37*
G36*
X52675Y393716D02*
X56490Y393716D01*
X60014Y395176D01*
X62711Y397873D01*
X64170Y401397D01*
X64170Y405211D01*
X62711Y408735D01*
X60014Y411432D01*
X56490Y412892D01*
X52675Y412892D01*
X49151Y411432D01*
X46454Y408735D01*
X44994Y405211D01*
X44994Y401397D01*
X46454Y397873D01*
X49151Y395176D01*
X52675Y393716D01*
G37*
G36*
X687675Y393716D02*
X691490Y393716D01*
X695014Y395176D01*
X697711Y397873D01*
X699170Y401397D01*
X699170Y405211D01*
X697711Y408735D01*
X695014Y411432D01*
X691490Y412892D01*
X687675Y412892D01*
X684151Y411432D01*
X681454Y408735D01*
X679994Y405211D01*
X679994Y401397D01*
X681454Y397873D01*
X684151Y395176D01*
X687675Y393716D01*
G37*
G36*
X687675Y368316D02*
X691490Y368316D01*
X695014Y369776D01*
X697711Y372473D01*
X699170Y375997D01*
X699170Y379811D01*
X697711Y383335D01*
X695014Y386032D01*
X691490Y387492D01*
X687675Y387492D01*
X684151Y386032D01*
X681454Y383335D01*
X679994Y379811D01*
X679994Y375997D01*
X681454Y372473D01*
X684151Y369776D01*
X687675Y368316D01*
G37*
G36*
X46780Y342916D02*
X62385Y342916D01*
X64170Y344701D01*
X64170Y360307D01*
X62385Y362092D01*
X46780Y362092D01*
X44994Y360307D01*
X44994Y344701D01*
X46780Y342916D01*
G37*
G36*
X687675Y342916D02*
X691490Y342916D01*
X695014Y344376D01*
X697711Y347073D01*
X699170Y350597D01*
X699170Y354411D01*
X697711Y357935D01*
X695014Y360632D01*
X691490Y362092D01*
X687675Y362092D01*
X684151Y360632D01*
X681454Y357935D01*
X679994Y354411D01*
X679994Y350597D01*
X681454Y347073D01*
X684151Y344376D01*
X687675Y342916D01*
G37*
G36*
X681780Y317516D02*
X697385Y317516D01*
X699170Y319301D01*
X699170Y334907D01*
X697385Y336692D01*
X681780Y336692D01*
X679994Y334907D01*
X679994Y319301D01*
X681780Y317516D01*
G37*
G36*
X892916Y332280D02*
X895560Y332280D01*
X895534Y332343D01*
X892979Y334898D01*
X892916Y334924D01*
X892916Y332280D01*
G37*
G36*
X1114529Y292212D02*
X1118343Y292212D01*
X1121867Y293672D01*
X1124564Y296369D01*
X1126024Y299893D01*
X1126024Y303707D01*
X1124564Y307231D01*
X1121867Y309928D01*
X1118343Y311388D01*
X1114529Y311388D01*
X1111005Y309928D01*
X1108308Y307231D01*
X1106848Y303707D01*
X1106848Y299893D01*
X1108308Y296369D01*
X1111005Y293672D01*
X1114529Y292212D01*
G37*
G36*
X52675Y292116D02*
X56490Y292116D01*
X60014Y293576D01*
X62711Y296273D01*
X64170Y299797D01*
X64170Y303611D01*
X62711Y307135D01*
X60014Y309832D01*
X56490Y311292D01*
X52675Y311292D01*
X49151Y309832D01*
X46454Y307135D01*
X44994Y303611D01*
X44994Y299797D01*
X46454Y296273D01*
X49151Y293576D01*
X52675Y292116D01*
G37*
G36*
X1114529Y266812D02*
X1118343Y266812D01*
X1121867Y268272D01*
X1124564Y270969D01*
X1126024Y274493D01*
X1126024Y278307D01*
X1124564Y281831D01*
X1121867Y284528D01*
X1118343Y285988D01*
X1114529Y285988D01*
X1111005Y284528D01*
X1108308Y281831D01*
X1106848Y278307D01*
X1106848Y274493D01*
X1108308Y270969D01*
X1111005Y268272D01*
X1114529Y266812D01*
G37*
G36*
X1114529Y241412D02*
X1118343Y241412D01*
X1121867Y242872D01*
X1124564Y245569D01*
X1126024Y249093D01*
X1126024Y252907D01*
X1124564Y256431D01*
X1121867Y259128D01*
X1118343Y260588D01*
X1114529Y260588D01*
X1111005Y259128D01*
X1108308Y256431D01*
X1106848Y252907D01*
X1106848Y249093D01*
X1108308Y245569D01*
X1111005Y242872D01*
X1114529Y241412D01*
G37*
G36*
X52675Y241316D02*
X56490Y241316D01*
X60014Y242776D01*
X62711Y245473D01*
X64170Y248997D01*
X64170Y252811D01*
X62711Y256335D01*
X60014Y259032D01*
X56490Y260492D01*
X52675Y260492D01*
X49151Y259032D01*
X46454Y256335D01*
X44994Y252811D01*
X44994Y248997D01*
X46454Y245473D01*
X49151Y242776D01*
X52675Y241316D01*
G37*
G36*
X1114529Y216012D02*
X1118343Y216012D01*
X1121867Y217472D01*
X1124564Y220169D01*
X1126024Y223693D01*
X1126024Y227507D01*
X1124564Y231031D01*
X1121867Y233728D01*
X1118343Y235188D01*
X1114529Y235188D01*
X1111005Y233728D01*
X1108308Y231031D01*
X1106848Y227507D01*
X1106848Y223693D01*
X1108308Y220169D01*
X1111005Y217472D01*
X1114529Y216012D01*
G37*
G36*
X660870Y136844D02*
X667495Y136844D01*
X673894Y138559D01*
X679631Y141871D01*
X684315Y146555D01*
X687628Y152293D01*
X689342Y158692D01*
X689342Y165316D01*
X687628Y171715D01*
X684315Y177453D01*
X679631Y182137D01*
X673894Y185449D01*
X667495Y187164D01*
X660870Y187164D01*
X654471Y185449D01*
X648734Y182137D01*
X644049Y177453D01*
X640737Y171715D01*
X639022Y165316D01*
X639022Y158692D01*
X640737Y152293D01*
X644049Y146555D01*
X648734Y141871D01*
X654471Y138559D01*
X660870Y136844D01*
G37*
G36*
X880112Y179880D02*
X882756Y179880D01*
X882756Y182524D01*
X882693Y182498D01*
X880138Y179943D01*
X880112Y179880D01*
G37*
G36*
X892916Y179880D02*
X895560Y179880D01*
X895534Y179943D01*
X892979Y182498D01*
X892916Y182524D01*
X892916Y179880D01*
G37*
G36*
X892916Y169720D02*
X892916Y167076D01*
X892979Y167102D01*
X895534Y169657D01*
X895560Y169720D01*
X892916Y169720D01*
G37*
G36*
X882693Y167102D02*
X882756Y167076D01*
X882756Y169720D01*
X880112Y169720D01*
X880138Y169657D01*
X882693Y167102D01*
G37*
G36*
X408474Y128016D02*
X411891Y128016D01*
X415047Y129323D01*
X417463Y131739D01*
X418770Y134896D01*
X418770Y138312D01*
X417463Y141469D01*
X415047Y143885D01*
X411891Y145192D01*
X408474Y145192D01*
X405318Y143885D01*
X402902Y141469D01*
X401594Y138312D01*
X401594Y134896D01*
X402902Y131739D01*
X405318Y129323D01*
X408474Y128016D01*
G37*
G36*
X383074Y128016D02*
X386491Y128016D01*
X389647Y129323D01*
X392063Y131739D01*
X393370Y134896D01*
X393370Y138312D01*
X392063Y141469D01*
X389647Y143885D01*
X386491Y145192D01*
X383074Y145192D01*
X379918Y143885D01*
X377502Y141469D01*
X376194Y138312D01*
X376194Y134896D01*
X377502Y131739D01*
X379918Y129323D01*
X383074Y128016D01*
G37*
G36*
X357674Y128016D02*
X361091Y128016D01*
X364247Y129323D01*
X366663Y131739D01*
X367970Y134896D01*
X367970Y138312D01*
X366663Y141469D01*
X364247Y143885D01*
X361091Y145192D01*
X357674Y145192D01*
X354518Y143885D01*
X352102Y141469D01*
X350794Y138312D01*
X350794Y134896D01*
X352102Y131739D01*
X354518Y129323D01*
X357674Y128016D01*
G37*
G36*
X332274Y128016D02*
X335691Y128016D01*
X338847Y129323D01*
X341263Y131739D01*
X342570Y134896D01*
X342570Y138312D01*
X341263Y141469D01*
X338847Y143885D01*
X335691Y145192D01*
X332274Y145192D01*
X329118Y143885D01*
X326702Y141469D01*
X325394Y138312D01*
X325394Y134896D01*
X326702Y131739D01*
X329118Y129323D01*
X332274Y128016D01*
G37*
G36*
X281474Y128016D02*
X284891Y128016D01*
X288047Y129323D01*
X290463Y131739D01*
X291770Y134896D01*
X291770Y138312D01*
X290463Y141469D01*
X288047Y143885D01*
X284891Y145192D01*
X281474Y145192D01*
X278318Y143885D01*
X275902Y141469D01*
X274594Y138312D01*
X274594Y134896D01*
X275902Y131739D01*
X278318Y129323D01*
X281474Y128016D01*
G37*
G36*
X230674Y128016D02*
X234091Y128016D01*
X237247Y129323D01*
X239663Y131739D01*
X240970Y134896D01*
X240970Y138312D01*
X239663Y141469D01*
X237247Y143885D01*
X234091Y145192D01*
X230674Y145192D01*
X227518Y143885D01*
X225102Y141469D01*
X223794Y138312D01*
X223794Y134896D01*
X225102Y131739D01*
X227518Y129323D01*
X230674Y128016D01*
G37*
G36*
X205274Y128016D02*
X208691Y128016D01*
X211847Y129323D01*
X214263Y131739D01*
X215570Y134896D01*
X215570Y138312D01*
X214263Y141469D01*
X211847Y143885D01*
X208691Y145192D01*
X205274Y145192D01*
X202118Y143885D01*
X199702Y141469D01*
X198394Y138312D01*
X198394Y134896D01*
X199702Y131739D01*
X202118Y129323D01*
X205274Y128016D01*
G37*
G36*
X179874Y128016D02*
X183291Y128016D01*
X186447Y129323D01*
X188863Y131739D01*
X190170Y134896D01*
X190170Y138312D01*
X188863Y141469D01*
X186447Y143885D01*
X183291Y145192D01*
X179874Y145192D01*
X176718Y143885D01*
X174302Y141469D01*
X172994Y138312D01*
X172994Y134896D01*
X174302Y131739D01*
X176718Y129323D01*
X179874Y128016D01*
G37*
G36*
X154474Y128016D02*
X157891Y128016D01*
X161047Y129323D01*
X163463Y131739D01*
X164770Y134896D01*
X164770Y138312D01*
X163463Y141469D01*
X161047Y143885D01*
X157891Y145192D01*
X154474Y145192D01*
X151318Y143885D01*
X148902Y141469D01*
X147594Y138312D01*
X147594Y134896D01*
X148902Y131739D01*
X151318Y129323D01*
X154474Y128016D01*
G37*
G36*
X129074Y128016D02*
X132491Y128016D01*
X135647Y129323D01*
X138063Y131739D01*
X139370Y134896D01*
X139370Y138312D01*
X138063Y141469D01*
X135647Y143885D01*
X132491Y145192D01*
X129074Y145192D01*
X125918Y143885D01*
X123502Y141469D01*
X122194Y138312D01*
X122194Y134896D01*
X123502Y131739D01*
X125918Y129323D01*
X129074Y128016D01*
G37*
G36*
X103674Y128016D02*
X107091Y128016D01*
X110247Y129323D01*
X112663Y131739D01*
X113970Y134896D01*
X113970Y138312D01*
X112663Y141469D01*
X110247Y143885D01*
X107091Y145192D01*
X103674Y145192D01*
X100518Y143885D01*
X98102Y141469D01*
X96794Y138312D01*
X96794Y134896D01*
X98102Y131739D01*
X100518Y129323D01*
X103674Y128016D01*
G37*
G36*
X78274Y128016D02*
X81691Y128016D01*
X84847Y129323D01*
X87263Y131739D01*
X88570Y134896D01*
X88570Y138312D01*
X87263Y141469D01*
X84847Y143885D01*
X81691Y145192D01*
X78274Y145192D01*
X75118Y143885D01*
X72702Y141469D01*
X71394Y138312D01*
X71394Y134896D01*
X72702Y131739D01*
X75118Y129323D01*
X78274Y128016D01*
G37*
G36*
X52874Y128016D02*
X56291Y128016D01*
X59447Y129323D01*
X61863Y131739D01*
X63170Y134896D01*
X63170Y138312D01*
X61863Y141469D01*
X59447Y143885D01*
X56291Y145192D01*
X52874Y145192D01*
X49718Y143885D01*
X47302Y141469D01*
X45994Y138312D01*
X45994Y134896D01*
X47302Y131739D01*
X49718Y129323D01*
X52874Y128016D01*
G37*
G36*
X306874Y128016D02*
X310291Y128016D01*
X313447Y129323D01*
X315863Y131739D01*
X317170Y134896D01*
X317170Y138312D01*
X315863Y141469D01*
X313447Y143885D01*
X310291Y145192D01*
X306874Y145192D01*
X303718Y143885D01*
X301302Y141469D01*
X299994Y138312D01*
X299994Y134896D01*
X301302Y131739D01*
X303718Y129323D01*
X306874Y128016D01*
G37*
G36*
X510074Y128016D02*
X513491Y128016D01*
X516647Y129323D01*
X519063Y131739D01*
X520370Y134896D01*
X520370Y138312D01*
X519063Y141469D01*
X516647Y143885D01*
X513491Y145192D01*
X510074Y145192D01*
X506918Y143885D01*
X504502Y141469D01*
X503194Y138312D01*
X503194Y134896D01*
X504502Y131739D01*
X506918Y129323D01*
X510074Y128016D01*
G37*
G36*
X484674Y128016D02*
X488091Y128016D01*
X491247Y129323D01*
X493663Y131739D01*
X494970Y134896D01*
X494970Y138312D01*
X493663Y141469D01*
X491247Y143885D01*
X488091Y145192D01*
X484674Y145192D01*
X481518Y143885D01*
X479102Y141469D01*
X477794Y138312D01*
X477794Y134896D01*
X479102Y131739D01*
X481518Y129323D01*
X484674Y128016D01*
G37*
G36*
X459274Y128016D02*
X462691Y128016D01*
X465847Y129323D01*
X468263Y131739D01*
X469570Y134896D01*
X469570Y138312D01*
X468263Y141469D01*
X465847Y143885D01*
X462691Y145192D01*
X459274Y145192D01*
X456118Y143885D01*
X453702Y141469D01*
X452394Y138312D01*
X452394Y134896D01*
X453702Y131739D01*
X456118Y129323D01*
X459274Y128016D01*
G37*
G36*
X428780Y128016D02*
X442385Y128016D01*
X444170Y129801D01*
X444170Y143407D01*
X442385Y145192D01*
X428780Y145192D01*
X426994Y143407D01*
X426994Y129801D01*
X428780Y128016D01*
G37*
G36*
X9256Y37340D02*
X16144Y37340D01*
X22797Y39123D01*
X28763Y42567D01*
X33633Y47437D01*
X37077Y53403D01*
X38860Y60056D01*
X38860Y66944D01*
X37077Y73597D01*
X33633Y79563D01*
X28763Y84433D01*
X22797Y87877D01*
X16144Y89660D01*
X9256Y89660D01*
X2603Y87877D01*
X-3363Y84433D01*
X-8233Y79563D01*
X-11677Y73597D01*
X-13460Y66944D01*
X-13460Y60056D01*
X-11677Y53403D01*
X-8233Y47437D01*
X-3363Y42567D01*
X2603Y39123D01*
X9256Y37340D01*
G37*
G36*
X1164956Y37340D02*
X1171844Y37340D01*
X1178497Y39123D01*
X1184463Y42567D01*
X1189333Y47437D01*
X1192777Y53403D01*
X1194560Y60056D01*
X1194560Y66944D01*
X1192777Y73597D01*
X1189333Y79563D01*
X1184463Y84433D01*
X1178497Y87877D01*
X1171844Y89660D01*
X1164956Y89660D01*
X1158303Y87877D01*
X1152337Y84433D01*
X1147467Y79563D01*
X1144023Y73597D01*
X1142240Y66944D01*
X1142240Y60056D01*
X1144023Y53403D01*
X1147467Y47437D01*
X1152337Y42567D01*
X1158303Y39123D01*
X1164956Y37340D01*
G37*
%LPD*%
D10*
X1116436Y174800D03*
X1116436Y200200D03*
X1116436Y225600D03*
X1116436Y251000D03*
X1116436Y276400D03*
X1116436Y301800D03*
X1116436Y327200D03*
X1116436Y352600D03*
X1116436Y378000D03*
X1116436Y403400D03*
X1116436Y428800D03*
X1116436Y454200D03*
X1116436Y479600D03*
X1116436Y505000D03*
X1116436Y530400D03*
X1116436Y555800D03*
X1116436Y581200D03*
X1116436Y606600D03*
X1116436Y632000D03*
X887836Y632000D03*
X887836Y606600D03*
X887836Y581200D03*
X887836Y555800D03*
X887836Y530400D03*
X887836Y505000D03*
X887836Y479600D03*
X887836Y454200D03*
X887836Y428800D03*
X887836Y403400D03*
X887836Y378000D03*
X887836Y352600D03*
X887836Y327200D03*
X887836Y301800D03*
X887836Y276400D03*
X887836Y251000D03*
X887836Y225600D03*
X887836Y200200D03*
X887836Y174800D03*
D11*
X689582Y327104D03*
D10*
X689582Y352504D03*
X689582Y377904D03*
X689582Y403304D03*
X689582Y428704D03*
X689582Y454104D03*
X689582Y479504D03*
X689582Y504904D03*
X689582Y530304D03*
X689582Y555704D03*
X689582Y581104D03*
X689582Y606504D03*
X689582Y631904D03*
D12*
X105382Y136604D03*
X130782Y136604D03*
X156182Y136604D03*
X181582Y136604D03*
X206982Y136604D03*
X232382Y136604D03*
X79982Y136604D03*
X54582Y136604D03*
X283182Y136604D03*
X308582Y136604D03*
X333982Y136604D03*
X359382Y136604D03*
X384782Y136604D03*
X410182Y136604D03*
D13*
X435582Y136604D03*
D12*
X460982Y136604D03*
X486382Y136604D03*
X511782Y136604D03*
D10*
X54582Y631904D03*
X79982Y631904D03*
X105382Y631904D03*
X130782Y631904D03*
X156182Y631904D03*
X181582Y631904D03*
X232382Y631904D03*
D11*
X257782Y631904D03*
X283182Y631904D03*
D10*
X308582Y631904D03*
X333982Y631904D03*
X359382Y631904D03*
X384782Y631904D03*
X410182Y631904D03*
X54582Y250904D03*
X54582Y301704D03*
D11*
X54582Y352504D03*
D10*
X54582Y403304D03*
X54582Y454104D03*
X54582Y504904D03*
D14*
X228600Y719700D03*
X253600Y719700D03*
X278600Y719700D03*
X303600Y719700D03*
X393700Y719700D03*
X418700Y719700D03*
X443700Y719700D03*
X468700Y719700D03*
D15*
X769380Y330200D02*
X784620Y330200D01*
X784620Y355600D02*
X769380Y355600D01*
X769380Y381000D02*
X784620Y381000D01*
X784620Y406400D02*
X769380Y406400D01*
X769380Y431800D02*
X784620Y431800D01*
X784620Y457200D02*
X769380Y457200D01*
X769380Y482600D02*
X784620Y482600D01*
X784620Y508000D02*
X769380Y508000D01*
X769380Y533400D02*
X784620Y533400D01*
X784620Y558800D02*
X769380Y558800D01*
X769380Y584200D02*
X784620Y584200D01*
X784620Y609600D02*
X769380Y609600D01*
X769380Y635000D02*
X784620Y635000D01*
D16*
X1092200Y762000D02*
X457200Y762000D01*
X295500Y762000D01*
X278600Y745100D01*
X278600Y719700D01*
X1092200Y762000D02*
X1116436Y737764D01*
X1116436Y632000D01*
X443700Y719700D02*
X443700Y748500D01*
X457200Y762000D01*
D17*
X337500Y685800D02*
X303600Y719700D01*
X337500Y685800D02*
X1003300Y685800D01*
X1028700Y660400D01*
X1028700Y533400D01*
X1097296Y464804D01*
X1120828Y464804D01*
X1130300Y455332D01*
X1130300Y391864D01*
X1116436Y378000D01*
X254000Y719300D02*
X253600Y719700D01*
X254000Y719300D02*
X254000Y698500D01*
X279400Y673100D01*
X990600Y673100D01*
X1016000Y647700D01*
X1016000Y520700D01*
X1092200Y444500D01*
X1092200Y419100D01*
X1107900Y403400D01*
X1116436Y403400D01*
X1054100Y723900D02*
X472900Y723900D01*
X468700Y719700D01*
X1079500Y571500D02*
X1109996Y541004D01*
X1155700Y368300D02*
X1140000Y352600D01*
X1116436Y352600D01*
X1079500Y698500D02*
X1054100Y723900D01*
X1079500Y698500D02*
X1079500Y571500D01*
X1109996Y541004D02*
X1146228Y541004D01*
X1155700Y531532D01*
X1155700Y368300D01*
X419100Y719300D02*
X418700Y719700D01*
X419100Y719300D02*
X419100Y711200D01*
X470321Y736600D02*
X1066800Y736600D01*
X457896Y724175D02*
X457896Y705917D01*
X457896Y724175D02*
X470321Y736600D01*
X431800Y698500D02*
X419100Y711200D01*
X431800Y698500D02*
X450479Y698500D01*
X457896Y705917D01*
X1066800Y736600D02*
X1092200Y711200D01*
X1092200Y584200D01*
X1109996Y566404D01*
X1168400Y546100D02*
X1168400Y341064D01*
X1154536Y327200D01*
X1116436Y327200D01*
X1168400Y546100D02*
X1148096Y566404D01*
X1109996Y566404D01*
X793640Y406400D02*
X777000Y406400D01*
X793640Y406400D02*
X885540Y314500D01*
X902832Y314500D01*
X911140Y306192D01*
X911140Y223504D01*
X887836Y200200D01*
X777000Y381000D02*
X769380Y381000D01*
X757696Y369316D01*
X757696Y325360D01*
X857456Y225600D01*
X887836Y225600D01*
X887836Y301800D02*
X875136Y301800D01*
X821336Y355600D01*
X777000Y355600D01*
X777000Y533400D02*
X787400Y533400D01*
X927100Y368300D02*
X911400Y352600D01*
X887836Y352600D01*
X855996Y464804D02*
X787400Y533400D01*
X855996Y464804D02*
X892228Y464804D01*
X927100Y429932D01*
X927100Y368300D01*
X784620Y508000D02*
X777000Y508000D01*
X784620Y508000D02*
X863021Y429599D01*
X863021Y402815D01*
X887836Y378000D01*
X911140Y405496D02*
X887836Y428800D01*
X911140Y405496D02*
X911140Y373608D01*
X843717Y423966D02*
X785083Y482600D01*
X777000Y482600D01*
X843717Y423966D02*
X843717Y394422D01*
X900736Y363204D02*
X911140Y373608D01*
X874936Y363204D02*
X843717Y394422D01*
X874936Y363204D02*
X900736Y363204D01*
X784620Y584200D02*
X777000Y584200D01*
X784620Y584200D02*
X799514Y569307D01*
X889326Y569307D01*
X1085575Y373057D01*
X1085575Y205661D01*
X1116436Y174800D01*
M02*
