G04 EAGLE Gerber RS-274X export*
G75*
%MOMM*%
%FSLAX34Y34*%
%LPD*%
%INSoldermask Bottom*%
%IPPOS*%
%AMOC8*
5,1,8,0,0,1.08239X$1,22.5*%
G01*
G04 Define Apertures*
%ADD10C,3.200400*%
%ADD11C,1.551200*%
%ADD12C,2.003200*%
%ADD13P,1.8695X8X292.5*%
%ADD14C,1.727200*%
%ADD15C,1.511200*%
D10*
X215900Y241300D03*
X-215900Y241300D03*
X-215900Y-393954D03*
X215900Y-393700D03*
D11*
X-114300Y210820D03*
X-89300Y210820D03*
X-64300Y210820D03*
X-39300Y210820D03*
X38100Y210820D03*
X63100Y210820D03*
X88100Y210820D03*
X113100Y210820D03*
X-187960Y83820D03*
X-187960Y108820D03*
X-187960Y133820D03*
X-187960Y158820D03*
X187960Y157480D03*
X187960Y132480D03*
X187960Y107480D03*
X187960Y82480D03*
D12*
X203200Y-342900D03*
X203200Y-317500D03*
X-203200Y-342900D03*
X-203200Y-317500D03*
D13*
X203200Y-152400D03*
X228600Y-152400D03*
X203200Y-177800D03*
X228600Y-177800D03*
X203200Y-203200D03*
X228600Y-203200D03*
X203200Y-228600D03*
X228600Y-228600D03*
X203200Y-254000D03*
X228600Y-254000D03*
D14*
X-195580Y38100D02*
X-210820Y38100D01*
X-210820Y12700D02*
X-195580Y12700D01*
X-195580Y-12700D02*
X-210820Y-12700D01*
X-210820Y-38100D02*
X-195580Y-38100D01*
X-195580Y-63500D02*
X-210820Y-63500D01*
X-210820Y-88900D02*
X-195580Y-88900D01*
X-195580Y-114300D02*
X-210820Y-114300D01*
X-210820Y-139700D02*
X-195580Y-139700D01*
X-195580Y-165100D02*
X-210820Y-165100D01*
X-210820Y-190500D02*
X-195580Y-190500D01*
X-195580Y-215900D02*
X-210820Y-215900D01*
X-210820Y-241300D02*
X-195580Y-241300D01*
X-195580Y-266700D02*
X-210820Y-266700D01*
X195580Y25400D02*
X210820Y25400D01*
X210820Y0D02*
X195580Y0D01*
X195580Y-25400D02*
X210820Y-25400D01*
X210820Y-50800D02*
X195580Y-50800D01*
X195580Y-76200D02*
X210820Y-76200D01*
X210820Y-101600D02*
X195580Y-101600D01*
D15*
X-127000Y88900D03*
X-127000Y63500D03*
X-127000Y38100D03*
X-127000Y12700D03*
X-127000Y-12700D03*
X-127000Y-38100D03*
X-127000Y-63500D03*
X-127000Y-88900D03*
X-127000Y-114300D03*
X-127000Y-139700D03*
X-127000Y-165100D03*
X-127000Y-190500D03*
X-127000Y-215900D03*
X-127000Y-241300D03*
X-127000Y-266700D03*
X127000Y88900D03*
X127000Y63500D03*
X127000Y38100D03*
X127000Y12700D03*
X127000Y-12700D03*
X127000Y-38100D03*
X127000Y-63500D03*
X127000Y-88900D03*
X127000Y-114300D03*
X127000Y-139700D03*
X127000Y-165100D03*
X127000Y-190500D03*
X127000Y-215900D03*
X127000Y-241300D03*
X127000Y-266700D03*
M02*
