M48
;GenerationSoftware,Autodesk,EAGLE,9.7.0*%
;CreationDate,2024-10-21T18:50:09Z*%
FMAT,2
ICI,OFF
METRIC,TZ,000.000
T6C0.600
T5C0.800
T4C0.840
T3C1.016
T2C3.000
T1C3.200
%
G90
M71
T1
X2540Y77470
X116840Y77470
X116840Y6350
X1270Y6350
T2
X66418Y16200
X58798Y60650
T3
X77700Y63500
X77700Y33020
X77700Y35560
X77700Y38100
X77700Y40640
X77700Y43180
X77700Y45720
X77700Y48260
X77700Y50800
X77700Y53340
X77700Y55880
X77700Y58420
X77700Y60960
T4
X44370Y71970
X22860Y71970
X25360Y71970
X27860Y71970
X30360Y71970
X39370Y71970
X41870Y71970
X46870Y71970
T5
X88784Y60660
X88784Y58120
X88784Y55580
X88784Y53040
X88784Y50500
X88784Y47960
X88784Y45420
X88784Y42880
X88784Y40340
X88784Y37800
X88784Y35260
X88784Y32720
X88784Y30180
X88784Y27640
X88784Y25100
X88784Y22560
X88784Y20020
X88784Y17480
X68958Y32710
X68958Y35250
X68958Y37790
X68958Y40330
X68958Y42870
X68958Y45410
X68958Y47950
X68958Y50490
X68958Y53030
X68958Y55570
X68958Y58110
X68958Y60650
X68958Y63190
X111644Y37800
X5458Y63190
X7998Y63190
X10538Y63190
X13078Y63190
X15618Y63190
X18158Y63190
X23238Y63190
X25778Y63190
X28318Y63190
X30858Y63190
X33398Y63190
X35938Y63190
X41018Y63190
X5458Y25090
X5458Y30170
X5458Y35250
X5458Y40330
X5458Y45410
X5458Y50490
X111644Y17480
X111644Y20020
X111644Y22560
X111644Y25100
X111644Y27640
X111644Y30180
X111644Y32720
X111644Y35260
X111644Y40340
X111644Y42880
X111644Y45420
X111644Y47960
X111644Y50500
X111644Y53040
X111644Y55580
X111644Y58120
X111644Y60660
X111644Y63200
X88784Y63200
X38478Y63190
T6
X28318Y13660
X30858Y13660
X33398Y13660
X13078Y13660
X35938Y13660
X38478Y13660
X41018Y13660
X10538Y13660
X43558Y13660
X46098Y13660
X48638Y13660
X51178Y13660
X15618Y13660
X18158Y13660
X20698Y13660
X23238Y13660
X7998Y13660
X5458Y13660
M30